<svg width="300" height="85" viewBox="0 0 300 85" fill="none" xmlns="http://www.w3.org/2000/svg">
<path d="M7.54688 19.9844L11.498 6.09375H13.4121L12.3047 11.4941L8.05273 26H6.15234L7.54688 19.9844ZM3.45898 6.09375L6.60352 19.7109L7.54688 26H5.66016L0.833984 6.09375H3.45898ZM18.5254 19.6973L21.6016 6.09375H24.2402L19.4277 26H17.541L18.5254 19.6973ZM13.6992 6.09375L17.541 19.9844L18.9355 26H17.0352L12.9336 11.4941L11.8125 6.09375H13.6992ZM32.4844 26.2734C31.4544 26.2734 30.5202 26.1003 29.6816 25.7539C28.8522 25.3984 28.1367 24.9017 27.5352 24.2637C26.9427 23.6257 26.487 22.8691 26.168 21.9941C25.849 21.1191 25.6895 20.1621 25.6895 19.123V18.5488C25.6895 17.3457 25.8672 16.2747 26.2227 15.3359C26.5781 14.388 27.0612 13.5859 27.6719 12.9297C28.2826 12.2734 28.9753 11.7767 29.75 11.4395C30.5247 11.1022 31.3268 10.9336 32.1562 10.9336C33.2135 10.9336 34.125 11.1159 34.8906 11.4805C35.6654 11.8451 36.2988 12.3555 36.791 13.0117C37.2832 13.6589 37.6478 14.4245 37.8848 15.3086C38.1217 16.1836 38.2402 17.1406 38.2402 18.1797V19.3145H27.1934V17.25H35.7109V17.0586C35.6745 16.4023 35.5378 15.7643 35.3008 15.1445C35.0729 14.5247 34.7083 14.0143 34.207 13.6133C33.7057 13.2122 33.0221 13.0117 32.1562 13.0117C31.582 13.0117 31.0534 13.1348 30.5703 13.3809C30.0872 13.6178 29.6725 13.9733 29.3262 14.4473C28.9798 14.9212 28.7109 15.5 28.5195 16.1836C28.3281 16.8672 28.2324 17.6556 28.2324 18.5488V19.123C28.2324 19.8249 28.3281 20.4857 28.5195 21.1055C28.7201 21.7161 29.0072 22.2539 29.3809 22.7188C29.7637 23.1836 30.224 23.5482 30.7617 23.8125C31.3086 24.0768 31.9284 24.209 32.6211 24.209C33.5143 24.209 34.2708 24.0267 34.8906 23.6621C35.5104 23.2975 36.0527 22.8099 36.5176 22.1992L38.0488 23.416C37.7298 23.8991 37.3242 24.3594 36.832 24.7969C36.3398 25.2344 35.7337 25.5898 35.0137 25.8633C34.3027 26.1367 33.4596 26.2734 32.4844 26.2734ZM43.9414 5V26H41.3984V5H43.9414ZM53.9219 24.1953C54.5234 24.1953 55.0794 24.0723 55.5898 23.8262C56.1003 23.5801 56.5195 23.2428 56.8477 22.8145C57.1758 22.377 57.3626 21.8802 57.4082 21.3242H59.8145C59.7689 22.1992 59.4727 23.015 58.9258 23.7715C58.388 24.5189 57.6816 25.125 56.8066 25.5898C55.9316 26.0456 54.9701 26.2734 53.9219 26.2734C52.8099 26.2734 51.8392 26.0775 51.0098 25.6855C50.1895 25.2936 49.5059 24.7559 48.959 24.0723C48.4212 23.3887 48.0156 22.6048 47.7422 21.7207C47.4779 20.8275 47.3457 19.8841 47.3457 18.8906V18.3164C47.3457 17.3229 47.4779 16.3841 47.7422 15.5C48.0156 14.6068 48.4212 13.8184 48.959 13.1348C49.5059 12.4512 50.1895 11.9134 51.0098 11.5215C51.8392 11.1296 52.8099 10.9336 53.9219 10.9336C55.0794 10.9336 56.0911 11.1706 56.957 11.6445C57.8229 12.1094 58.502 12.7474 58.9941 13.5586C59.4954 14.3607 59.7689 15.2721 59.8145 16.293H57.4082C57.3626 15.6823 57.1895 15.1309 56.8887 14.6387C56.597 14.1465 56.196 13.7546 55.6855 13.4629C55.1842 13.1621 54.5964 13.0117 53.9219 13.0117C53.1471 13.0117 52.4954 13.1667 51.9668 13.4766C51.4473 13.7773 51.0326 14.1875 50.7227 14.707C50.4219 15.2174 50.2031 15.7871 50.0664 16.416C49.9388 17.0358 49.875 17.6693 49.875 18.3164V18.8906C49.875 19.5378 49.9388 20.1758 50.0664 20.8047C50.194 21.4336 50.4082 22.0033 50.709 22.5137C51.0189 23.0241 51.4336 23.4342 51.9531 23.7441C52.4818 24.0449 53.138 24.1953 53.9219 24.1953ZM61.9883 18.7676V18.4531C61.9883 17.3867 62.1432 16.3978 62.4531 15.4863C62.763 14.5658 63.2096 13.7682 63.793 13.0938C64.3763 12.4102 65.0827 11.8815 65.9121 11.5078C66.7415 11.125 67.6712 10.9336 68.7012 10.9336C69.7402 10.9336 70.6745 11.125 71.5039 11.5078C72.3424 11.8815 73.0534 12.4102 73.6367 13.0938C74.2292 13.7682 74.6803 14.5658 74.9902 15.4863C75.3001 16.3978 75.4551 17.3867 75.4551 18.4531V18.7676C75.4551 19.834 75.3001 20.8229 74.9902 21.7344C74.6803 22.6458 74.2292 23.4434 73.6367 24.127C73.0534 24.8014 72.347 25.3301 71.5176 25.7129C70.6973 26.0866 69.7676 26.2734 68.7285 26.2734C67.6895 26.2734 66.7552 26.0866 65.9258 25.7129C65.0964 25.3301 64.3854 24.8014 63.793 24.127C63.2096 23.4434 62.763 22.6458 62.4531 21.7344C62.1432 20.8229 61.9883 19.834 61.9883 18.7676ZM64.5176 18.4531V18.7676C64.5176 19.5059 64.6042 20.2031 64.7773 20.8594C64.9505 21.5065 65.2103 22.0807 65.5566 22.582C65.9121 23.0833 66.3542 23.4798 66.8828 23.7715C67.4115 24.054 68.0267 24.1953 68.7285 24.1953C69.4212 24.1953 70.0273 24.054 70.5469 23.7715C71.0755 23.4798 71.513 23.0833 71.8594 22.582C72.2057 22.0807 72.4655 21.5065 72.6387 20.8594C72.821 20.2031 72.9121 19.5059 72.9121 18.7676V18.4531C72.9121 17.724 72.821 17.0358 72.6387 16.3887C72.4655 15.7324 72.2012 15.1536 71.8457 14.6523C71.4993 14.1419 71.0618 13.7409 70.5332 13.4492C70.0137 13.1576 69.403 13.0117 68.7012 13.0117C68.0085 13.0117 67.3978 13.1576 66.8691 13.4492C66.3496 13.7409 65.9121 14.1419 65.5566 14.6523C65.2103 15.1536 64.9505 15.7324 64.7773 16.3887C64.6042 17.0358 64.5176 17.724 64.5176 18.4531ZM81.1426 14.1465V26H78.5996V11.207H81.0059L81.1426 14.1465ZM80.623 18.043L79.4473 18.002C79.4564 16.9902 79.5885 16.056 79.8438 15.1992C80.099 14.3333 80.4772 13.5814 80.9785 12.9434C81.4798 12.3053 82.1042 11.8132 82.8516 11.4668C83.599 11.1113 84.4648 10.9336 85.4492 10.9336C86.1419 10.9336 86.7799 11.0339 87.3633 11.2344C87.9466 11.4258 88.4525 11.7311 88.8809 12.1504C89.3092 12.5697 89.6419 13.1074 89.8789 13.7637C90.1159 14.4199 90.2344 15.2129 90.2344 16.1426V26H87.7051V16.2656C87.7051 15.4909 87.5729 14.8711 87.3086 14.4062C87.0534 13.9414 86.6888 13.6042 86.2148 13.3945C85.7409 13.1758 85.1849 13.0664 84.5469 13.0664C83.7995 13.0664 83.1751 13.1986 82.6738 13.4629C82.1725 13.7272 81.7715 14.0918 81.4707 14.5566C81.1699 15.0215 80.9512 15.5547 80.8145 16.1562C80.6868 16.7487 80.623 17.3776 80.623 18.043ZM90.207 16.6484L88.5117 17.168C88.5208 16.3568 88.653 15.5775 88.9082 14.8301C89.1725 14.0827 89.5508 13.4173 90.043 12.834C90.5443 12.2507 91.1595 11.7904 91.8887 11.4531C92.6178 11.1068 93.4518 10.9336 94.3906 10.9336C95.1836 10.9336 95.8854 11.0384 96.4961 11.248C97.1159 11.4577 97.6354 11.7812 98.0547 12.2188C98.4831 12.6471 98.8066 13.1986 99.0254 13.873C99.2441 14.5475 99.3535 15.3496 99.3535 16.2793V26H96.8105V16.252C96.8105 15.4225 96.6784 14.7799 96.4141 14.3242C96.1589 13.8594 95.7943 13.5358 95.3203 13.3535C94.8555 13.1621 94.2995 13.0664 93.6523 13.0664C93.0964 13.0664 92.6042 13.1621 92.1758 13.3535C91.7474 13.5449 91.3874 13.8092 91.0957 14.1465C90.804 14.4746 90.5807 14.8529 90.4258 15.2812C90.2799 15.7096 90.207 16.1654 90.207 16.6484ZM109.32 26.2734C108.29 26.2734 107.356 26.1003 106.518 25.7539C105.688 25.3984 104.973 24.9017 104.371 24.2637C103.779 23.6257 103.323 22.8691 103.004 21.9941C102.685 21.1191 102.525 20.1621 102.525 19.123V18.5488C102.525 17.3457 102.703 16.2747 103.059 15.3359C103.414 14.388 103.897 13.5859 104.508 12.9297C105.118 12.2734 105.811 11.7767 106.586 11.4395C107.361 11.1022 108.163 10.9336 108.992 10.9336C110.049 10.9336 110.961 11.1159 111.727 11.4805C112.501 11.8451 113.135 12.3555 113.627 13.0117C114.119 13.6589 114.484 14.4245 114.721 15.3086C114.958 16.1836 115.076 17.1406 115.076 18.1797V19.3145H104.029V17.25H112.547V17.0586C112.51 16.4023 112.374 15.7643 112.137 15.1445C111.909 14.5247 111.544 14.0143 111.043 13.6133C110.542 13.2122 109.858 13.0117 108.992 13.0117C108.418 13.0117 107.889 13.1348 107.406 13.3809C106.923 13.6178 106.508 13.9733 106.162 14.4473C105.816 14.9212 105.547 15.5 105.355 16.1836C105.164 16.8672 105.068 17.6556 105.068 18.5488V19.123C105.068 19.8249 105.164 20.4857 105.355 21.1055C105.556 21.7161 105.843 22.2539 106.217 22.7188C106.6 23.1836 107.06 23.5482 107.598 23.8125C108.145 24.0768 108.764 24.209 109.457 24.209C110.35 24.209 111.107 24.0267 111.727 23.6621C112.346 23.2975 112.889 22.8099 113.354 22.1992L114.885 23.416C114.566 23.8991 114.16 24.3594 113.668 24.7969C113.176 25.2344 112.57 25.5898 111.85 25.8633C111.139 26.1367 110.296 26.2734 109.32 26.2734ZM131.168 11.207V13.1484H123.17V11.207H131.168ZM125.877 7.61133H128.406V22.3359C128.406 22.8372 128.484 23.2155 128.639 23.4707C128.794 23.7259 128.994 23.8945 129.24 23.9766C129.486 24.0586 129.751 24.0996 130.033 24.0996C130.243 24.0996 130.462 24.0814 130.689 24.0449C130.926 23.9993 131.104 23.9629 131.223 23.9355L131.236 26C131.036 26.0638 130.771 26.123 130.443 26.1777C130.124 26.2415 129.737 26.2734 129.281 26.2734C128.661 26.2734 128.092 26.1504 127.572 25.9043C127.053 25.6582 126.638 25.248 126.328 24.6738C126.027 24.0905 125.877 23.3066 125.877 22.3223V7.61133ZM133.191 18.7676V18.4531C133.191 17.3867 133.346 16.3978 133.656 15.4863C133.966 14.5658 134.413 13.7682 134.996 13.0938C135.579 12.4102 136.286 11.8815 137.115 11.5078C137.945 11.125 138.874 10.9336 139.904 10.9336C140.943 10.9336 141.878 11.125 142.707 11.5078C143.546 11.8815 144.257 12.4102 144.84 13.0938C145.432 13.7682 145.883 14.5658 146.193 15.4863C146.503 16.3978 146.658 17.3867 146.658 18.4531V18.7676C146.658 19.834 146.503 20.8229 146.193 21.7344C145.883 22.6458 145.432 23.4434 144.84 24.127C144.257 24.8014 143.55 25.3301 142.721 25.7129C141.9 26.0866 140.971 26.2734 139.932 26.2734C138.893 26.2734 137.958 26.0866 137.129 25.7129C136.299 25.3301 135.589 24.8014 134.996 24.127C134.413 23.4434 133.966 22.6458 133.656 21.7344C133.346 20.8229 133.191 19.834 133.191 18.7676ZM135.721 18.4531V18.7676C135.721 19.5059 135.807 20.2031 135.98 20.8594C136.154 21.5065 136.413 22.0807 136.76 22.582C137.115 23.0833 137.557 23.4798 138.086 23.7715C138.615 24.054 139.23 24.1953 139.932 24.1953C140.624 24.1953 141.23 24.054 141.75 23.7715C142.279 23.4798 142.716 23.0833 143.062 22.582C143.409 22.0807 143.669 21.5065 143.842 20.8594C144.024 20.2031 144.115 19.5059 144.115 18.7676V18.4531C144.115 17.724 144.024 17.0358 143.842 16.3887C143.669 15.7324 143.404 15.1536 143.049 14.6523C142.702 14.1419 142.265 13.7409 141.736 13.4492C141.217 13.1576 140.606 13.0117 139.904 13.0117C139.212 13.0117 138.601 13.1576 138.072 13.4492C137.553 13.7409 137.115 14.1419 136.76 14.6523C136.413 15.1536 136.154 15.7324 135.98 16.3887C135.807 17.0358 135.721 17.724 135.721 18.4531ZM164.295 18.7402H159.168V15.7871H164.295C165.133 15.7871 165.812 15.6504 166.332 15.377C166.861 15.0944 167.248 14.7116 167.494 14.2285C167.74 13.7363 167.863 13.1758 167.863 12.5469C167.863 11.9362 167.74 11.3665 167.494 10.8379C167.248 10.3092 166.861 9.88086 166.332 9.55273C165.812 9.22461 165.133 9.06055 164.295 9.06055H160.398V26H156.639V6.09375H164.295C165.844 6.09375 167.166 6.37174 168.26 6.92773C169.363 7.47461 170.201 8.23568 170.775 9.21094C171.359 10.1771 171.65 11.2799 171.65 12.5195C171.65 13.8047 171.359 14.9121 170.775 15.8418C170.201 16.7715 169.363 17.487 168.26 17.9883C167.166 18.4896 165.844 18.7402 164.295 18.7402ZM178.158 5V26H174.535V5H178.158ZM189.752 22.8555V16.0332C189.752 15.5319 189.665 15.099 189.492 14.7344C189.319 14.3698 189.055 14.0872 188.699 13.8867C188.344 13.6862 187.893 13.5859 187.346 13.5859C186.863 13.5859 186.439 13.668 186.074 13.832C185.719 13.9961 185.445 14.2285 185.254 14.5293C185.062 14.821 184.967 15.1582 184.967 15.541H181.344C181.344 14.9303 181.49 14.3516 181.781 13.8047C182.073 13.2487 182.488 12.7565 183.025 12.3281C183.572 11.8906 184.224 11.5488 184.98 11.3027C185.746 11.0566 186.603 10.9336 187.551 10.9336C188.672 10.9336 189.67 11.125 190.545 11.5078C191.429 11.8815 192.122 12.4466 192.623 13.2031C193.133 13.9596 193.389 14.9121 193.389 16.0605V22.5137C193.389 23.252 193.434 23.8854 193.525 24.4141C193.626 24.9336 193.771 25.3848 193.963 25.7676V26H190.285C190.112 25.6263 189.98 25.1523 189.889 24.5781C189.798 23.9948 189.752 23.4206 189.752 22.8555ZM190.258 16.9902L190.285 19.1367H188.002C187.437 19.1367 186.94 19.196 186.512 19.3145C186.083 19.4238 185.732 19.5879 185.459 19.8066C185.186 20.0163 184.98 20.2715 184.844 20.5723C184.707 20.8639 184.639 21.1966 184.639 21.5703C184.639 21.9349 184.721 22.263 184.885 22.5547C185.058 22.8464 185.304 23.0788 185.623 23.252C185.951 23.416 186.334 23.498 186.771 23.498C187.41 23.498 187.965 23.3704 188.439 23.1152C188.913 22.8509 189.283 22.5319 189.547 22.1582C189.811 21.7845 189.952 21.429 189.971 21.0918L191.01 22.6504C190.882 23.0241 190.691 23.4206 190.436 23.8398C190.18 24.2591 189.852 24.651 189.451 25.0156C189.05 25.3802 188.567 25.681 188.002 25.918C187.437 26.1549 186.781 26.2734 186.033 26.2734C185.076 26.2734 184.219 26.082 183.463 25.6992C182.706 25.3164 182.109 24.7923 181.672 24.127C181.234 23.4616 181.016 22.7051 181.016 21.8574C181.016 21.0736 181.161 20.3809 181.453 19.7793C181.745 19.1777 182.178 18.6719 182.752 18.2617C183.326 17.8424 184.037 17.528 184.885 17.3184C185.742 17.0996 186.721 16.9902 187.824 16.9902H190.258ZM200.184 14.3652V26H196.574V11.207H199.965L200.184 14.3652ZM199.609 18.0703H198.543C198.552 16.9948 198.698 16.0195 198.98 15.1445C199.263 14.2695 199.66 13.5176 200.17 12.8887C200.689 12.2598 201.305 11.7767 202.016 11.4395C202.727 11.1022 203.52 10.9336 204.395 10.9336C205.105 10.9336 205.748 11.0339 206.322 11.2344C206.896 11.4349 207.389 11.7539 207.799 12.1914C208.218 12.6289 208.537 13.2031 208.756 13.9141C208.984 14.6159 209.098 15.4818 209.098 16.5117V26H205.461V16.4844C205.461 15.8099 205.361 15.2767 205.16 14.8848C204.969 14.4928 204.686 14.2148 204.312 14.0508C203.948 13.8867 203.497 13.8047 202.959 13.8047C202.403 13.8047 201.915 13.9186 201.496 14.1465C201.086 14.3652 200.74 14.6706 200.457 15.0625C200.184 15.4544 199.974 15.9056 199.828 16.416C199.682 16.9264 199.609 17.4779 199.609 18.0703ZM219.283 11.207V13.8047H210.807V11.207H219.283ZM213.076 7.57031H216.699V21.7344C216.699 22.1719 216.758 22.5091 216.877 22.7461C216.995 22.9831 217.173 23.1426 217.41 23.2246C217.647 23.3066 217.93 23.3477 218.258 23.3477C218.495 23.3477 218.714 23.334 218.914 23.3066C219.115 23.2793 219.283 23.252 219.42 23.2246L219.434 25.9316C219.133 26.0319 218.791 26.1139 218.408 26.1777C218.035 26.2415 217.611 26.2734 217.137 26.2734C216.326 26.2734 215.615 26.1367 215.004 25.8633C214.393 25.5807 213.919 25.1296 213.582 24.5098C213.245 23.8809 213.076 23.0514 213.076 22.0215V7.57031ZM229.879 9.11523L224.205 26H220.227L227.664 6.09375H230.207L229.879 9.11523ZM234.623 26L228.922 9.11523L228.58 6.09375H231.137L238.615 26H234.623ZM234.363 18.6035V21.5703H223.686V18.6035H234.363ZM243.646 14.0508V31.6875H240.023V11.207H243.373L243.646 14.0508ZM253.148 18.4531V18.7402C253.148 19.8158 253.021 20.8138 252.766 21.7344C252.52 22.6458 252.155 23.4434 251.672 24.127C251.189 24.8014 250.587 25.3301 249.867 25.7129C249.156 26.0866 248.336 26.2734 247.406 26.2734C246.495 26.2734 245.702 26.1003 245.027 25.7539C244.353 25.3984 243.783 24.8971 243.318 24.25C242.854 23.6029 242.48 22.8509 242.197 21.9941C241.924 21.1283 241.719 20.1849 241.582 19.1641V18.248C241.719 17.1634 241.924 16.179 242.197 15.2949C242.48 14.4017 242.854 13.6315 243.318 12.9844C243.783 12.3281 244.348 11.8223 245.014 11.4668C245.688 11.1113 246.477 10.9336 247.379 10.9336C248.318 10.9336 249.143 11.1113 249.854 11.4668C250.574 11.8223 251.18 12.3327 251.672 12.998C252.164 13.6634 252.533 14.4564 252.779 15.377C253.025 16.2975 253.148 17.3229 253.148 18.4531ZM249.525 18.7402V18.4531C249.525 17.7969 249.466 17.1908 249.348 16.6348C249.229 16.0697 249.047 15.5775 248.801 15.1582C248.555 14.7298 248.236 14.3971 247.844 14.1602C247.452 13.9232 246.978 13.8047 246.422 13.8047C245.866 13.8047 245.387 13.8958 244.986 14.0781C244.585 14.2604 244.257 14.5202 244.002 14.8574C243.747 15.1947 243.546 15.5957 243.4 16.0605C243.264 16.5163 243.173 17.0221 243.127 17.5781V19.8477C243.209 20.5221 243.368 21.1283 243.605 21.666C243.842 22.2038 244.189 22.6322 244.645 22.9512C245.109 23.2702 245.711 23.4297 246.449 23.4297C247.005 23.4297 247.479 23.3066 247.871 23.0605C248.263 22.8145 248.582 22.4772 248.828 22.0488C249.074 21.6113 249.252 21.11 249.361 20.5449C249.471 19.9798 249.525 19.3783 249.525 18.7402ZM259.396 14.0508V31.6875H255.773V11.207H259.123L259.396 14.0508ZM268.898 18.4531V18.7402C268.898 19.8158 268.771 20.8138 268.516 21.7344C268.27 22.6458 267.905 23.4434 267.422 24.127C266.939 24.8014 266.337 25.3301 265.617 25.7129C264.906 26.0866 264.086 26.2734 263.156 26.2734C262.245 26.2734 261.452 26.1003 260.777 25.7539C260.103 25.3984 259.533 24.8971 259.068 24.25C258.604 23.6029 258.23 22.8509 257.947 21.9941C257.674 21.1283 257.469 20.1849 257.332 19.1641V18.248C257.469 17.1634 257.674 16.179 257.947 15.2949C258.23 14.4017 258.604 13.6315 259.068 12.9844C259.533 12.3281 260.098 11.8223 260.764 11.4668C261.438 11.1113 262.227 10.9336 263.129 10.9336C264.068 10.9336 264.893 11.1113 265.604 11.4668C266.324 11.8223 266.93 12.3327 267.422 12.998C267.914 13.6634 268.283 14.4564 268.529 15.377C268.775 16.2975 268.898 17.3229 268.898 18.4531ZM265.275 18.7402V18.4531C265.275 17.7969 265.216 17.1908 265.098 16.6348C264.979 16.0697 264.797 15.5775 264.551 15.1582C264.305 14.7298 263.986 14.3971 263.594 14.1602C263.202 13.9232 262.728 13.8047 262.172 13.8047C261.616 13.8047 261.137 13.8958 260.736 14.0781C260.335 14.2604 260.007 14.5202 259.752 14.8574C259.497 15.1947 259.296 15.5957 259.15 16.0605C259.014 16.5163 258.923 17.0221 258.877 17.5781V19.8477C258.959 20.5221 259.118 21.1283 259.355 21.666C259.592 22.2038 259.939 22.6322 260.395 22.9512C260.859 23.2702 261.461 23.4297 262.199 23.4297C262.755 23.4297 263.229 23.3066 263.621 23.0605C264.013 22.8145 264.332 22.4772 264.578 22.0488C264.824 21.6113 265.002 21.11 265.111 20.5449C265.221 19.9798 265.275 19.3783 265.275 18.7402Z" fill="#13231B"/>
<path d="M2.9375 45.625V57H1.42969V45.625H2.9375ZM10.7891 55.3594V45H12.2422V57H10.9141L10.7891 55.3594ZM5.10156 52.8672V52.7031C5.10156 52.0573 5.17969 51.4714 5.33594 50.9453C5.4974 50.4141 5.72396 49.9583 6.01562 49.5781C6.3125 49.1979 6.66406 48.9062 7.07031 48.7031C7.48177 48.4948 7.9401 48.3906 8.44531 48.3906C8.97656 48.3906 9.4401 48.4844 9.83594 48.6719C10.237 48.8542 10.5755 49.1224 10.8516 49.4766C11.1328 49.8255 11.3542 50.2474 11.5156 50.7422C11.6771 51.237 11.7891 51.7969 11.8516 52.4219V53.1406C11.7943 53.7604 11.6823 54.3177 11.5156 54.8125C11.3542 55.3073 11.1328 55.7292 10.8516 56.0781C10.5755 56.4271 10.237 56.6953 9.83594 56.8828C9.4349 57.0651 8.96615 57.1562 8.42969 57.1562C7.9349 57.1562 7.48177 57.0495 7.07031 56.8359C6.66406 56.6224 6.3125 56.3229 6.01562 55.9375C5.72396 55.5521 5.4974 55.099 5.33594 54.5781C5.17969 54.0521 5.10156 53.4818 5.10156 52.8672ZM6.55469 52.7031V52.8672C6.55469 53.2891 6.59635 53.6849 6.67969 54.0547C6.76823 54.4245 6.90365 54.75 7.08594 55.0312C7.26823 55.3125 7.5 55.5339 7.78125 55.6953C8.0625 55.8516 8.39844 55.9297 8.78906 55.9297C9.26823 55.9297 9.66146 55.8281 9.96875 55.625C10.2812 55.4219 10.5312 55.1536 10.7188 54.8203C10.9062 54.487 11.0521 54.125 11.1562 53.7344V51.8516C11.0938 51.5651 11.0026 51.2891 10.8828 51.0234C10.7682 50.7526 10.6172 50.513 10.4297 50.3047C10.2474 50.0911 10.0208 49.9219 9.75 49.7969C9.48438 49.6719 9.16927 49.6094 8.80469 49.6094C8.40885 49.6094 8.06771 49.6927 7.78125 49.8594C7.5 50.0208 7.26823 50.2448 7.08594 50.5312C6.90365 50.8125 6.76823 51.1406 6.67969 51.5156C6.59635 51.8854 6.55469 52.2812 6.55469 52.7031ZM18 57.1562C17.4115 57.1562 16.8776 57.0573 16.3984 56.8594C15.9245 56.6562 15.5156 56.3724 15.1719 56.0078C14.8333 55.6432 14.5729 55.2109 14.3906 54.7109C14.2083 54.2109 14.1172 53.6641 14.1172 53.0703V52.7422C14.1172 52.0547 14.2188 51.4427 14.4219 50.9062C14.625 50.3646 14.901 49.9062 15.25 49.5312C15.599 49.1562 15.9948 48.8724 16.4375 48.6797C16.8802 48.487 17.3385 48.3906 17.8125 48.3906C18.4167 48.3906 18.9375 48.4948 19.375 48.7031C19.8177 48.9115 20.1797 49.2031 20.4609 49.5781C20.7422 49.9479 20.9505 50.3854 21.0859 50.8906C21.2214 51.3906 21.2891 51.9375 21.2891 52.5312V53.1797H14.9766V52H19.8438V51.8906C19.8229 51.5156 19.7448 51.151 19.6094 50.7969C19.4792 50.4427 19.2708 50.151 18.9844 49.9219C18.6979 49.6927 18.3073 49.5781 17.8125 49.5781C17.4844 49.5781 17.1823 49.6484 16.9062 49.7891C16.6302 49.9245 16.3932 50.1276 16.1953 50.3984C15.9974 50.6693 15.8438 51 15.7344 51.3906C15.625 51.7812 15.5703 52.2318 15.5703 52.7422V53.0703C15.5703 53.4714 15.625 53.849 15.7344 54.2031C15.849 54.5521 16.013 54.8594 16.2266 55.125C16.4453 55.3906 16.7083 55.599 17.0156 55.75C17.3281 55.901 17.6823 55.9766 18.0781 55.9766C18.5885 55.9766 19.0208 55.8724 19.375 55.6641C19.7292 55.4557 20.0391 55.1771 20.3047 54.8281L21.1797 55.5234C20.9974 55.7995 20.7656 56.0625 20.4844 56.3125C20.2031 56.5625 19.8568 56.7656 19.4453 56.9219C19.0391 57.0781 18.5573 57.1562 18 57.1562ZM24.4219 50.3516V57H22.9766V48.5469H24.3438L24.4219 50.3516ZM24.0781 52.4531L23.4766 52.4297C23.4818 51.8516 23.5677 51.3177 23.7344 50.8281C23.901 50.3333 24.1354 49.9036 24.4375 49.5391C24.7396 49.1745 25.099 48.8932 25.5156 48.6953C25.9375 48.4922 26.4036 48.3906 26.9141 48.3906C27.3307 48.3906 27.7057 48.4479 28.0391 48.5625C28.3724 48.6719 28.6562 48.849 28.8906 49.0938C29.1302 49.3385 29.3125 49.6562 29.4375 50.0469C29.5625 50.4323 29.625 50.9036 29.625 51.4609V57H28.1719V51.4453C28.1719 51.0026 28.1068 50.6484 27.9766 50.3828C27.8464 50.112 27.6562 49.9167 27.4062 49.7969C27.1562 49.6719 26.849 49.6094 26.4844 49.6094C26.125 49.6094 25.7969 49.6849 25.5 49.8359C25.2083 49.987 24.9557 50.1953 24.7422 50.4609C24.5339 50.7266 24.3698 51.0312 24.25 51.375C24.1354 51.7135 24.0781 52.0729 24.0781 52.4531ZM35.3594 48.5469V49.6562H30.7891V48.5469H35.3594ZM32.3359 46.4922H33.7812V54.9062C33.7812 55.1927 33.8255 55.4089 33.9141 55.5547C34.0026 55.7005 34.1172 55.7969 34.2578 55.8438C34.3984 55.8906 34.5495 55.9141 34.7109 55.9141C34.8307 55.9141 34.9557 55.9036 35.0859 55.8828C35.2214 55.8568 35.3229 55.8359 35.3906 55.8203L35.3984 57C35.2839 57.0365 35.1328 57.0703 34.9453 57.1016C34.763 57.138 34.5417 57.1562 34.2812 57.1562C33.9271 57.1562 33.6016 57.0859 33.3047 56.9453C33.0078 56.8047 32.7708 56.5703 32.5938 56.2422C32.4219 55.9089 32.3359 55.4609 32.3359 54.8984V46.4922ZM38.625 48.5469V57H37.1719V48.5469H38.625ZM37.0625 46.3047C37.0625 46.0703 37.1328 45.8724 37.2734 45.7109C37.4193 45.5495 37.6328 45.4688 37.9141 45.4688C38.1901 45.4688 38.401 45.5495 38.5469 45.7109C38.6979 45.8724 38.7734 46.0703 38.7734 46.3047C38.7734 46.5286 38.6979 46.7214 38.5469 46.8828C38.401 47.0391 38.1901 47.1172 37.9141 47.1172C37.6328 47.1172 37.4193 47.0391 37.2734 46.8828C37.1328 46.7214 37.0625 46.5286 37.0625 46.3047ZM43.1016 57H41.6562V47.6562C41.6562 47.0469 41.7656 46.5339 41.9844 46.1172C42.2083 45.6953 42.5286 45.3776 42.9453 45.1641C43.362 44.9453 43.8568 44.8359 44.4297 44.8359C44.5964 44.8359 44.763 44.8464 44.9297 44.8672C45.1016 44.888 45.2682 44.9193 45.4297 44.9609L45.3516 46.1406C45.2422 46.1146 45.1172 46.0964 44.9766 46.0859C44.8411 46.0755 44.7057 46.0703 44.5703 46.0703C44.263 46.0703 43.9974 46.1328 43.7734 46.2578C43.5547 46.3776 43.388 46.5547 43.2734 46.7891C43.1589 47.0234 43.1016 47.3125 43.1016 47.6562V57ZM44.8984 48.5469V49.6562H40.3203V48.5469H44.8984ZM48.8828 56.125L51.2344 48.5469H52.7812L49.3906 58.3047C49.3125 58.513 49.2083 58.737 49.0781 58.9766C48.9531 59.2214 48.7917 59.4531 48.5938 59.6719C48.3958 59.8906 48.1562 60.0677 47.875 60.2031C47.599 60.3438 47.2682 60.4141 46.8828 60.4141C46.7682 60.4141 46.6224 60.3984 46.4453 60.3672C46.2682 60.3359 46.1432 60.3099 46.0703 60.2891L46.0625 59.1172C46.1042 59.1224 46.1693 59.1276 46.2578 59.1328C46.3516 59.1432 46.4167 59.1484 46.4531 59.1484C46.7812 59.1484 47.0599 59.1042 47.2891 59.0156C47.5182 58.9323 47.7109 58.7891 47.8672 58.5859C48.0286 58.388 48.1667 58.1146 48.2812 57.7656L48.8828 56.125ZM47.1562 48.5469L49.3516 55.1094L49.7266 56.6328L48.6875 57.1641L45.5781 48.5469H47.1562ZM59.4922 50.2266V57H58.0391V48.5469H59.4141L59.4922 50.2266ZM59.1953 52.4531L58.5234 52.4297C58.5286 51.8516 58.6042 51.3177 58.75 50.8281C58.8958 50.3333 59.112 49.9036 59.3984 49.5391C59.6849 49.1745 60.0417 48.8932 60.4688 48.6953C60.8958 48.4922 61.3906 48.3906 61.9531 48.3906C62.349 48.3906 62.7135 48.4479 63.0469 48.5625C63.3802 48.6719 63.6693 48.8464 63.9141 49.0859C64.1589 49.3255 64.349 49.6328 64.4844 50.0078C64.6198 50.3828 64.6875 50.8359 64.6875 51.3672V57H63.2422V51.4375C63.2422 50.9948 63.1667 50.6406 63.0156 50.375C62.8698 50.1094 62.6615 49.9167 62.3906 49.7969C62.1198 49.6719 61.8021 49.6094 61.4375 49.6094C61.0104 49.6094 60.6536 49.6849 60.3672 49.8359C60.0807 49.987 59.8516 50.1953 59.6797 50.4609C59.5078 50.7266 59.3828 51.0312 59.3047 51.375C59.2318 51.7135 59.1953 52.0729 59.1953 52.4531ZM64.6719 51.6562L63.7031 51.9531C63.7083 51.4896 63.7839 51.0443 63.9297 50.6172C64.0807 50.1901 64.2969 49.8099 64.5781 49.4766C64.8646 49.1432 65.2161 48.8802 65.6328 48.6875C66.0495 48.4896 66.526 48.3906 67.0625 48.3906C67.5156 48.3906 67.9167 48.4505 68.2656 48.5703C68.6198 48.6901 68.9167 48.875 69.1562 49.125C69.401 49.3698 69.5859 49.6849 69.7109 50.0703C69.8359 50.4557 69.8984 50.9141 69.8984 51.4453V57H68.4453V51.4297C68.4453 50.9557 68.3698 50.5885 68.2188 50.3281C68.0729 50.0625 67.8646 49.8776 67.5938 49.7734C67.3281 49.6641 67.0104 49.6094 66.6406 49.6094C66.3229 49.6094 66.0417 49.6641 65.7969 49.7734C65.5521 49.8828 65.3464 50.0339 65.1797 50.2266C65.013 50.4141 64.8854 50.6302 64.7969 50.875C64.7135 51.1198 64.6719 51.3802 64.6719 51.6562ZM71.7031 52.8672V52.6875C71.7031 52.0781 71.7917 51.513 71.9688 50.9922C72.1458 50.4661 72.401 50.0104 72.7344 49.625C73.0677 49.2344 73.4714 48.9323 73.9453 48.7188C74.4193 48.5 74.9505 48.3906 75.5391 48.3906C76.1328 48.3906 76.6667 48.5 77.1406 48.7188C77.6198 48.9323 78.026 49.2344 78.3594 49.625C78.6979 50.0104 78.9557 50.4661 79.1328 50.9922C79.3099 51.513 79.3984 52.0781 79.3984 52.6875V52.8672C79.3984 53.4766 79.3099 54.0417 79.1328 54.5625C78.9557 55.0833 78.6979 55.5391 78.3594 55.9297C78.026 56.3151 77.6224 56.6172 77.1484 56.8359C76.6797 57.0495 76.1484 57.1562 75.5547 57.1562C74.9609 57.1562 74.4271 57.0495 73.9531 56.8359C73.4792 56.6172 73.0729 56.3151 72.7344 55.9297C72.401 55.5391 72.1458 55.0833 71.9688 54.5625C71.7917 54.0417 71.7031 53.4766 71.7031 52.8672ZM73.1484 52.6875V52.8672C73.1484 53.2891 73.1979 53.6875 73.2969 54.0625C73.3958 54.4323 73.5443 54.7604 73.7422 55.0469C73.9453 55.3333 74.1979 55.5599 74.5 55.7266C74.8021 55.888 75.1536 55.9688 75.5547 55.9688C75.9505 55.9688 76.2969 55.888 76.5938 55.7266C76.8958 55.5599 77.1458 55.3333 77.3438 55.0469C77.5417 54.7604 77.6901 54.4323 77.7891 54.0625C77.8932 53.6875 77.9453 53.2891 77.9453 52.8672V52.6875C77.9453 52.2708 77.8932 51.8776 77.7891 51.5078C77.6901 51.1328 77.5391 50.8021 77.3359 50.5156C77.138 50.224 76.888 49.9948 76.5859 49.8281C76.2891 49.6615 75.9401 49.5781 75.5391 49.5781C75.1432 49.5781 74.7943 49.6615 74.4922 49.8281C74.1953 49.9948 73.9453 50.224 73.7422 50.5156C73.5443 50.8021 73.3958 51.1328 73.2969 51.5078C73.1979 51.8776 73.1484 52.2708 73.1484 52.6875ZM82.6562 49.875V57H81.2109V48.5469H82.6172L82.6562 49.875ZM85.2969 48.5L85.2891 49.8438C85.1693 49.8177 85.0547 49.8021 84.9453 49.7969C84.8411 49.7865 84.7214 49.7812 84.5859 49.7812C84.2526 49.7812 83.9583 49.8333 83.7031 49.9375C83.4479 50.0417 83.2318 50.1875 83.0547 50.375C82.8776 50.5625 82.737 50.7865 82.6328 51.0469C82.5339 51.3021 82.4688 51.5833 82.4375 51.8906L82.0312 52.125C82.0312 51.6146 82.0807 51.1354 82.1797 50.6875C82.2839 50.2396 82.4427 49.8438 82.6562 49.5C82.8698 49.151 83.1406 48.8802 83.4688 48.6875C83.8021 48.4896 84.1979 48.3906 84.6562 48.3906C84.7604 48.3906 84.8802 48.4036 85.0156 48.4297C85.151 48.4505 85.2448 48.474 85.2969 48.5ZM89.9844 57.1562C89.3958 57.1562 88.862 57.0573 88.3828 56.8594C87.9089 56.6562 87.5 56.3724 87.1562 56.0078C86.8177 55.6432 86.5573 55.2109 86.375 54.7109C86.1927 54.2109 86.1016 53.6641 86.1016 53.0703V52.7422C86.1016 52.0547 86.2031 51.4427 86.4062 50.9062C86.6094 50.3646 86.8854 49.9062 87.2344 49.5312C87.5833 49.1562 87.9792 48.8724 88.4219 48.6797C88.8646 48.487 89.3229 48.3906 89.7969 48.3906C90.401 48.3906 90.9219 48.4948 91.3594 48.7031C91.8021 48.9115 92.1641 49.2031 92.4453 49.5781C92.7266 49.9479 92.9349 50.3854 93.0703 50.8906C93.2057 51.3906 93.2734 51.9375 93.2734 52.5312V53.1797H86.9609V52H91.8281V51.8906C91.8073 51.5156 91.7292 51.151 91.5938 50.7969C91.4635 50.4427 91.2552 50.151 90.9688 49.9219C90.6823 49.6927 90.2917 49.5781 89.7969 49.5781C89.4688 49.5781 89.1667 49.6484 88.8906 49.7891C88.6146 49.9245 88.3776 50.1276 88.1797 50.3984C87.9818 50.6693 87.8281 51 87.7188 51.3906C87.6094 51.7812 87.5547 52.2318 87.5547 52.7422V53.0703C87.5547 53.4714 87.6094 53.849 87.7188 54.2031C87.8333 54.5521 87.9974 54.8594 88.2109 55.125C88.4297 55.3906 88.6927 55.599 89 55.75C89.3125 55.901 89.6667 55.9766 90.0625 55.9766C90.5729 55.9766 91.0052 55.8724 91.3594 55.6641C91.7135 55.4557 92.0234 55.1771 92.2891 54.8281L93.1641 55.5234C92.9818 55.7995 92.75 56.0625 92.4688 56.3125C92.1875 56.5625 91.8411 56.7656 91.4297 56.9219C91.0234 57.0781 90.5417 57.1562 89.9844 57.1562ZM102.469 48.5469V49.6562H97.8984V48.5469H102.469ZM99.4453 46.4922H100.891V54.9062C100.891 55.1927 100.935 55.4089 101.023 55.5547C101.112 55.7005 101.227 55.7969 101.367 55.8438C101.508 55.8906 101.659 55.9141 101.82 55.9141C101.94 55.9141 102.065 55.9036 102.195 55.8828C102.331 55.8568 102.432 55.8359 102.5 55.8203L102.508 57C102.393 57.0365 102.242 57.0703 102.055 57.1016C101.872 57.138 101.651 57.1562 101.391 57.1562C101.036 57.1562 100.711 57.0859 100.414 56.9453C100.117 56.8047 99.8802 56.5703 99.7031 56.2422C99.5312 55.9089 99.4453 55.4609 99.4453 54.8984V46.4922ZM105.609 45V57H104.164V45H105.609ZM105.266 52.4531L104.664 52.4297C104.669 51.8516 104.755 51.3177 104.922 50.8281C105.089 50.3333 105.323 49.9036 105.625 49.5391C105.927 49.1745 106.286 48.8932 106.703 48.6953C107.125 48.4922 107.591 48.3906 108.102 48.3906C108.518 48.3906 108.893 48.4479 109.227 48.5625C109.56 48.6719 109.844 48.849 110.078 49.0938C110.318 49.3385 110.5 49.6562 110.625 50.0469C110.75 50.4323 110.812 50.9036 110.812 51.4609V57H109.359V51.4453C109.359 51.0026 109.294 50.6484 109.164 50.3828C109.034 50.112 108.844 49.9167 108.594 49.7969C108.344 49.6719 108.036 49.6094 107.672 49.6094C107.312 49.6094 106.984 49.6849 106.688 49.8359C106.396 49.987 106.143 50.1953 105.93 50.4609C105.721 50.7266 105.557 51.0312 105.438 51.375C105.323 51.7135 105.266 52.0729 105.266 52.4531ZM117.961 55.5547V51.2031C117.961 50.8698 117.893 50.5807 117.758 50.3359C117.628 50.0859 117.43 49.8932 117.164 49.7578C116.898 49.6224 116.57 49.5547 116.18 49.5547C115.815 49.5547 115.495 49.6172 115.219 49.7422C114.948 49.8672 114.734 50.0312 114.578 50.2344C114.427 50.4375 114.352 50.6562 114.352 50.8906H112.906C112.906 50.5885 112.984 50.2891 113.141 49.9922C113.297 49.6953 113.521 49.4271 113.812 49.1875C114.109 48.9427 114.464 48.75 114.875 48.6094C115.292 48.4635 115.755 48.3906 116.266 48.3906C116.88 48.3906 117.422 48.4948 117.891 48.7031C118.365 48.9115 118.734 49.2266 119 49.6484C119.271 50.0651 119.406 50.5885 119.406 51.2188V55.1562C119.406 55.4375 119.43 55.737 119.477 56.0547C119.529 56.3724 119.604 56.6458 119.703 56.875V57H118.195C118.122 56.8333 118.065 56.612 118.023 56.3359C117.982 56.0547 117.961 55.7943 117.961 55.5547ZM118.211 51.875L118.227 52.8906H116.766C116.354 52.8906 115.987 52.9245 115.664 52.9922C115.341 53.0547 115.07 53.151 114.852 53.2812C114.633 53.4115 114.466 53.5755 114.352 53.7734C114.237 53.9661 114.18 54.1927 114.18 54.4531C114.18 54.7188 114.24 54.9609 114.359 55.1797C114.479 55.3984 114.659 55.5729 114.898 55.7031C115.143 55.8281 115.443 55.8906 115.797 55.8906C116.24 55.8906 116.63 55.7969 116.969 55.6094C117.307 55.4219 117.576 55.1927 117.773 54.9219C117.977 54.651 118.086 54.388 118.102 54.1328L118.719 54.8281C118.682 55.0469 118.583 55.2891 118.422 55.5547C118.26 55.8203 118.044 56.0755 117.773 56.3203C117.508 56.5599 117.19 56.7604 116.82 56.9219C116.456 57.0781 116.044 57.1562 115.586 57.1562C115.013 57.1562 114.51 57.0443 114.078 56.8203C113.651 56.5964 113.318 56.2969 113.078 55.9219C112.844 55.5417 112.727 55.1172 112.727 54.6484C112.727 54.1953 112.815 53.7969 112.992 53.4531C113.169 53.1042 113.424 52.8151 113.758 52.5859C114.091 52.3516 114.492 52.1745 114.961 52.0547C115.43 51.9349 115.953 51.875 116.531 51.875H118.211ZM123.125 50.3516V57H121.68V48.5469H123.047L123.125 50.3516ZM122.781 52.4531L122.18 52.4297C122.185 51.8516 122.271 51.3177 122.438 50.8281C122.604 50.3333 122.839 49.9036 123.141 49.5391C123.443 49.1745 123.802 48.8932 124.219 48.6953C124.641 48.4922 125.107 48.3906 125.617 48.3906C126.034 48.3906 126.409 48.4479 126.742 48.5625C127.076 48.6719 127.359 48.849 127.594 49.0938C127.833 49.3385 128.016 49.6562 128.141 50.0469C128.266 50.4323 128.328 50.9036 128.328 51.4609V57H126.875V51.4453C126.875 51.0026 126.81 50.6484 126.68 50.3828C126.549 50.112 126.359 49.9167 126.109 49.7969C125.859 49.6719 125.552 49.6094 125.188 49.6094C124.828 49.6094 124.5 49.6849 124.203 49.8359C123.911 49.987 123.659 50.1953 123.445 50.4609C123.237 50.7266 123.073 51.0312 122.953 51.375C122.839 51.7135 122.781 52.0729 122.781 52.4531ZM136.445 50.6016H137.477C137.982 50.6016 138.398 50.5182 138.727 50.3516C139.06 50.1797 139.307 49.9479 139.469 49.6562C139.635 49.3594 139.719 49.026 139.719 48.6562C139.719 48.2188 139.646 47.8516 139.5 47.5547C139.354 47.2578 139.135 47.0339 138.844 46.8828C138.552 46.7318 138.182 46.6562 137.734 46.6562C137.328 46.6562 136.969 46.737 136.656 46.8984C136.349 47.0547 136.107 47.2786 135.93 47.5703C135.758 47.862 135.672 48.2057 135.672 48.6016H134.227C134.227 48.0234 134.372 47.4974 134.664 47.0234C134.956 46.5495 135.365 46.1719 135.891 45.8906C136.422 45.6094 137.036 45.4688 137.734 45.4688C138.422 45.4688 139.023 45.5911 139.539 45.8359C140.055 46.0755 140.456 46.4349 140.742 46.9141C141.029 47.388 141.172 47.9792 141.172 48.6875C141.172 48.974 141.104 49.2812 140.969 49.6094C140.839 49.9323 140.633 50.2344 140.352 50.5156C140.076 50.7969 139.716 51.0286 139.273 51.2109C138.831 51.388 138.299 51.4766 137.68 51.4766H136.445V50.6016ZM136.445 51.7891V50.9219H137.68C138.404 50.9219 139.003 51.0078 139.477 51.1797C139.951 51.3516 140.323 51.5807 140.594 51.8672C140.87 52.1536 141.062 52.4688 141.172 52.8125C141.286 53.151 141.344 53.4896 141.344 53.8281C141.344 54.3594 141.253 54.8307 141.07 55.2422C140.893 55.6536 140.641 56.0026 140.312 56.2891C139.99 56.5755 139.609 56.7917 139.172 56.9375C138.734 57.0833 138.258 57.1562 137.742 57.1562C137.247 57.1562 136.781 57.0859 136.344 56.9453C135.911 56.8047 135.529 56.6016 135.195 56.3359C134.862 56.0651 134.602 55.7344 134.414 55.3438C134.227 54.9479 134.133 54.4974 134.133 53.9922H135.578C135.578 54.388 135.664 54.7344 135.836 55.0312C136.013 55.3281 136.263 55.5599 136.586 55.7266C136.914 55.888 137.299 55.9688 137.742 55.9688C138.185 55.9688 138.565 55.8932 138.883 55.7422C139.206 55.5859 139.453 55.3516 139.625 55.0391C139.802 54.7266 139.891 54.3333 139.891 53.8594C139.891 53.3854 139.792 52.9974 139.594 52.6953C139.396 52.388 139.115 52.1615 138.75 52.0156C138.391 51.8646 137.966 51.7891 137.477 51.7891H136.445ZM150.477 50.4062V52.1406C150.477 53.0729 150.393 53.8594 150.227 54.5C150.06 55.1406 149.82 55.6562 149.508 56.0469C149.195 56.4375 148.818 56.7214 148.375 56.8984C147.938 57.0703 147.443 57.1562 146.891 57.1562C146.453 57.1562 146.049 57.1016 145.68 56.9922C145.31 56.8828 144.977 56.7083 144.68 56.4688C144.388 56.224 144.138 55.9062 143.93 55.5156C143.721 55.125 143.562 54.651 143.453 54.0938C143.344 53.5365 143.289 52.8854 143.289 52.1406V50.4062C143.289 49.474 143.372 48.6927 143.539 48.0625C143.711 47.4323 143.953 46.9271 144.266 46.5469C144.578 46.1615 144.953 45.8854 145.391 45.7188C145.833 45.5521 146.328 45.4688 146.875 45.4688C147.318 45.4688 147.724 45.5234 148.094 45.6328C148.469 45.737 148.802 45.9062 149.094 46.1406C149.385 46.3698 149.633 46.6771 149.836 47.0625C150.044 47.4427 150.203 47.9089 150.312 48.4609C150.422 49.013 150.477 49.6615 150.477 50.4062ZM149.023 52.375V50.1641C149.023 49.6536 148.992 49.2057 148.93 48.8203C148.872 48.4297 148.786 48.0964 148.672 47.8203C148.557 47.5443 148.411 47.3203 148.234 47.1484C148.062 46.9766 147.862 46.8516 147.633 46.7734C147.409 46.6901 147.156 46.6484 146.875 46.6484C146.531 46.6484 146.227 46.7135 145.961 46.8438C145.695 46.9688 145.471 47.1693 145.289 47.4453C145.112 47.7214 144.977 48.0833 144.883 48.5312C144.789 48.9792 144.742 49.5234 144.742 50.1641V52.375C144.742 52.8854 144.771 53.3359 144.828 53.7266C144.891 54.1172 144.982 54.4557 145.102 54.7422C145.221 55.0234 145.367 55.2552 145.539 55.4375C145.711 55.6198 145.909 55.7552 146.133 55.8438C146.362 55.9271 146.615 55.9688 146.891 55.9688C147.245 55.9688 147.555 55.901 147.82 55.7656C148.086 55.6302 148.307 55.4193 148.484 55.1328C148.667 54.8411 148.802 54.4688 148.891 54.0156C148.979 53.5573 149.023 53.0104 149.023 52.375ZM159.477 50.4062V52.1406C159.477 53.0729 159.393 53.8594 159.227 54.5C159.06 55.1406 158.82 55.6562 158.508 56.0469C158.195 56.4375 157.818 56.7214 157.375 56.8984C156.938 57.0703 156.443 57.1562 155.891 57.1562C155.453 57.1562 155.049 57.1016 154.68 56.9922C154.31 56.8828 153.977 56.7083 153.68 56.4688C153.388 56.224 153.138 55.9062 152.93 55.5156C152.721 55.125 152.562 54.651 152.453 54.0938C152.344 53.5365 152.289 52.8854 152.289 52.1406V50.4062C152.289 49.474 152.372 48.6927 152.539 48.0625C152.711 47.4323 152.953 46.9271 153.266 46.5469C153.578 46.1615 153.953 45.8854 154.391 45.7188C154.833 45.5521 155.328 45.4688 155.875 45.4688C156.318 45.4688 156.724 45.5234 157.094 45.6328C157.469 45.737 157.802 45.9062 158.094 46.1406C158.385 46.3698 158.633 46.6771 158.836 47.0625C159.044 47.4427 159.203 47.9089 159.312 48.4609C159.422 49.013 159.477 49.6615 159.477 50.4062ZM158.023 52.375V50.1641C158.023 49.6536 157.992 49.2057 157.93 48.8203C157.872 48.4297 157.786 48.0964 157.672 47.8203C157.557 47.5443 157.411 47.3203 157.234 47.1484C157.062 46.9766 156.862 46.8516 156.633 46.7734C156.409 46.6901 156.156 46.6484 155.875 46.6484C155.531 46.6484 155.227 46.7135 154.961 46.8438C154.695 46.9688 154.471 47.1693 154.289 47.4453C154.112 47.7214 153.977 48.0833 153.883 48.5312C153.789 48.9792 153.742 49.5234 153.742 50.1641V52.375C153.742 52.8854 153.771 53.3359 153.828 53.7266C153.891 54.1172 153.982 54.4557 154.102 54.7422C154.221 55.0234 154.367 55.2552 154.539 55.4375C154.711 55.6198 154.909 55.7552 155.133 55.8438C155.362 55.9271 155.615 55.9688 155.891 55.9688C156.245 55.9688 156.555 55.901 156.82 55.7656C157.086 55.6302 157.307 55.4193 157.484 55.1328C157.667 54.8411 157.802 54.4688 157.891 54.0156C157.979 53.5573 158.023 53.0104 158.023 52.375ZM168.477 50.4062V52.1406C168.477 53.0729 168.393 53.8594 168.227 54.5C168.06 55.1406 167.82 55.6562 167.508 56.0469C167.195 56.4375 166.818 56.7214 166.375 56.8984C165.938 57.0703 165.443 57.1562 164.891 57.1562C164.453 57.1562 164.049 57.1016 163.68 56.9922C163.31 56.8828 162.977 56.7083 162.68 56.4688C162.388 56.224 162.138 55.9062 161.93 55.5156C161.721 55.125 161.562 54.651 161.453 54.0938C161.344 53.5365 161.289 52.8854 161.289 52.1406V50.4062C161.289 49.474 161.372 48.6927 161.539 48.0625C161.711 47.4323 161.953 46.9271 162.266 46.5469C162.578 46.1615 162.953 45.8854 163.391 45.7188C163.833 45.5521 164.328 45.4688 164.875 45.4688C165.318 45.4688 165.724 45.5234 166.094 45.6328C166.469 45.737 166.802 45.9062 167.094 46.1406C167.385 46.3698 167.633 46.6771 167.836 47.0625C168.044 47.4427 168.203 47.9089 168.312 48.4609C168.422 49.013 168.477 49.6615 168.477 50.4062ZM167.023 52.375V50.1641C167.023 49.6536 166.992 49.2057 166.93 48.8203C166.872 48.4297 166.786 48.0964 166.672 47.8203C166.557 47.5443 166.411 47.3203 166.234 47.1484C166.062 46.9766 165.862 46.8516 165.633 46.7734C165.409 46.6901 165.156 46.6484 164.875 46.6484C164.531 46.6484 164.227 46.7135 163.961 46.8438C163.695 46.9688 163.471 47.1693 163.289 47.4453C163.112 47.7214 162.977 48.0833 162.883 48.5312C162.789 48.9792 162.742 49.5234 162.742 50.1641V52.375C162.742 52.8854 162.771 53.3359 162.828 53.7266C162.891 54.1172 162.982 54.4557 163.102 54.7422C163.221 55.0234 163.367 55.2552 163.539 55.4375C163.711 55.6198 163.909 55.7552 164.133 55.8438C164.362 55.9271 164.615 55.9688 164.891 55.9688C165.245 55.9688 165.555 55.901 165.82 55.7656C166.086 55.6302 166.307 55.4193 166.484 55.1328C166.667 54.8411 166.802 54.4688 166.891 54.0156C166.979 53.5573 167.023 53.0104 167.023 52.375ZM177.797 50.8984V52.2578H170V50.8984H177.797ZM174.625 47.5781V55.8594H173.18V47.5781H174.625ZM184.984 50.1719V60.25H183.531V48.5469H184.859L184.984 50.1719ZM190.68 52.7031V52.8672C190.68 53.4818 190.607 54.0521 190.461 54.5781C190.315 55.099 190.102 55.5521 189.82 55.9375C189.544 56.3229 189.203 56.6224 188.797 56.8359C188.391 57.0495 187.924 57.1562 187.398 57.1562C186.862 57.1562 186.388 57.0677 185.977 56.8906C185.565 56.7135 185.216 56.4557 184.93 56.1172C184.643 55.7786 184.414 55.3724 184.242 54.8984C184.076 54.4245 183.961 53.8906 183.898 53.2969V52.4219C183.961 51.7969 184.078 51.237 184.25 50.7422C184.422 50.2474 184.648 49.8255 184.93 49.4766C185.216 49.1224 185.562 48.8542 185.969 48.6719C186.375 48.4844 186.844 48.3906 187.375 48.3906C187.906 48.3906 188.378 48.4948 188.789 48.7031C189.201 48.9062 189.547 49.1979 189.828 49.5781C190.109 49.9583 190.32 50.4141 190.461 50.9453C190.607 51.4714 190.68 52.0573 190.68 52.7031ZM189.227 52.8672V52.7031C189.227 52.2812 189.182 51.8854 189.094 51.5156C189.005 51.1406 188.867 50.8125 188.68 50.5312C188.497 50.2448 188.263 50.0208 187.977 49.8594C187.69 49.6927 187.349 49.6094 186.953 49.6094C186.589 49.6094 186.271 49.6719 186 49.7969C185.734 49.9219 185.508 50.0911 185.32 50.3047C185.133 50.513 184.979 50.7526 184.859 51.0234C184.745 51.2891 184.659 51.5651 184.602 51.8516V53.875C184.706 54.2396 184.852 54.5833 185.039 54.9062C185.227 55.224 185.477 55.4818 185.789 55.6797C186.102 55.8724 186.495 55.9688 186.969 55.9688C187.359 55.9688 187.695 55.888 187.977 55.7266C188.263 55.5599 188.497 55.3333 188.68 55.0469C188.867 54.7604 189.005 54.4323 189.094 54.0625C189.182 53.6875 189.227 53.2891 189.227 52.8672ZM194.094 45V57H192.641V45H194.094ZM201.398 55.5547V51.2031C201.398 50.8698 201.331 50.5807 201.195 50.3359C201.065 50.0859 200.867 49.8932 200.602 49.7578C200.336 49.6224 200.008 49.5547 199.617 49.5547C199.253 49.5547 198.932 49.6172 198.656 49.7422C198.385 49.8672 198.172 50.0312 198.016 50.2344C197.865 50.4375 197.789 50.6562 197.789 50.8906H196.344C196.344 50.5885 196.422 50.2891 196.578 49.9922C196.734 49.6953 196.958 49.4271 197.25 49.1875C197.547 48.9427 197.901 48.75 198.312 48.6094C198.729 48.4635 199.193 48.3906 199.703 48.3906C200.318 48.3906 200.859 48.4948 201.328 48.7031C201.802 48.9115 202.172 49.2266 202.438 49.6484C202.708 50.0651 202.844 50.5885 202.844 51.2188V55.1562C202.844 55.4375 202.867 55.737 202.914 56.0547C202.966 56.3724 203.042 56.6458 203.141 56.875V57H201.633C201.56 56.8333 201.503 56.612 201.461 56.3359C201.419 56.0547 201.398 55.7943 201.398 55.5547ZM201.648 51.875L201.664 52.8906H200.203C199.792 52.8906 199.424 52.9245 199.102 52.9922C198.779 53.0547 198.508 53.151 198.289 53.2812C198.07 53.4115 197.904 53.5755 197.789 53.7734C197.674 53.9661 197.617 54.1927 197.617 54.4531C197.617 54.7188 197.677 54.9609 197.797 55.1797C197.917 55.3984 198.096 55.5729 198.336 55.7031C198.581 55.8281 198.88 55.8906 199.234 55.8906C199.677 55.8906 200.068 55.7969 200.406 55.6094C200.745 55.4219 201.013 55.1927 201.211 54.9219C201.414 54.651 201.523 54.388 201.539 54.1328L202.156 54.8281C202.12 55.0469 202.021 55.2891 201.859 55.5547C201.698 55.8203 201.482 56.0755 201.211 56.3203C200.945 56.5599 200.628 56.7604 200.258 56.9219C199.893 57.0781 199.482 57.1562 199.023 57.1562C198.451 57.1562 197.948 57.0443 197.516 56.8203C197.089 56.5964 196.755 56.2969 196.516 55.9219C196.281 55.5417 196.164 55.1172 196.164 54.6484C196.164 54.1953 196.253 53.7969 196.43 53.4531C196.607 53.1042 196.862 52.8151 197.195 52.5859C197.529 52.3516 197.93 52.1745 198.398 52.0547C198.867 51.9349 199.391 51.875 199.969 51.875H201.648ZM206.562 50.3516V57H205.117V48.5469H206.484L206.562 50.3516ZM206.219 52.4531L205.617 52.4297C205.622 51.8516 205.708 51.3177 205.875 50.8281C206.042 50.3333 206.276 49.9036 206.578 49.5391C206.88 49.1745 207.24 48.8932 207.656 48.6953C208.078 48.4922 208.544 48.3906 209.055 48.3906C209.471 48.3906 209.846 48.4479 210.18 48.5625C210.513 48.6719 210.797 48.849 211.031 49.0938C211.271 49.3385 211.453 49.6562 211.578 50.0469C211.703 50.4323 211.766 50.9036 211.766 51.4609V57H210.312V51.4453C210.312 51.0026 210.247 50.6484 210.117 50.3828C209.987 50.112 209.797 49.9167 209.547 49.7969C209.297 49.6719 208.99 49.6094 208.625 49.6094C208.266 49.6094 207.938 49.6849 207.641 49.8359C207.349 49.987 207.096 50.1953 206.883 50.4609C206.674 50.7266 206.51 51.0312 206.391 51.375C206.276 51.7135 206.219 52.0729 206.219 52.4531ZM217.5 48.5469V49.6562H212.93V48.5469H217.5ZM214.477 46.4922H215.922V54.9062C215.922 55.1927 215.966 55.4089 216.055 55.5547C216.143 55.7005 216.258 55.7969 216.398 55.8438C216.539 55.8906 216.69 55.9141 216.852 55.9141C216.971 55.9141 217.096 55.9036 217.227 55.8828C217.362 55.8568 217.464 55.8359 217.531 55.8203L217.539 57C217.424 57.0365 217.273 57.0703 217.086 57.1016C216.904 57.138 216.682 57.1562 216.422 57.1562C216.068 57.1562 215.742 57.0859 215.445 56.9453C215.148 56.8047 214.911 56.5703 214.734 56.2422C214.562 55.9089 214.477 55.4609 214.477 54.8984V46.4922ZM224.117 54.7578C224.117 54.5495 224.07 54.3568 223.977 54.1797C223.888 53.9974 223.703 53.8333 223.422 53.6875C223.146 53.5365 222.729 53.4062 222.172 53.2969C221.703 53.1979 221.279 53.0807 220.898 52.9453C220.523 52.8099 220.203 52.6458 219.938 52.4531C219.677 52.2604 219.477 52.0339 219.336 51.7734C219.195 51.513 219.125 51.2083 219.125 50.8594C219.125 50.526 219.198 50.2109 219.344 49.9141C219.495 49.6172 219.706 49.3542 219.977 49.125C220.253 48.8958 220.583 48.7161 220.969 48.5859C221.354 48.4557 221.784 48.3906 222.258 48.3906C222.935 48.3906 223.513 48.5104 223.992 48.75C224.471 48.9896 224.839 49.3099 225.094 49.7109C225.349 50.1068 225.477 50.5469 225.477 51.0312H224.031C224.031 50.7969 223.961 50.5703 223.82 50.3516C223.685 50.1276 223.484 49.9427 223.219 49.7969C222.958 49.651 222.638 49.5781 222.258 49.5781C221.857 49.5781 221.531 49.6406 221.281 49.7656C221.036 49.8854 220.857 50.0391 220.742 50.2266C220.633 50.4141 220.578 50.612 220.578 50.8203C220.578 50.9766 220.604 51.1172 220.656 51.2422C220.714 51.362 220.812 51.474 220.953 51.5781C221.094 51.6771 221.292 51.7708 221.547 51.8594C221.802 51.9479 222.128 52.0365 222.523 52.125C223.216 52.2812 223.786 52.4688 224.234 52.6875C224.682 52.9062 225.016 53.1745 225.234 53.4922C225.453 53.8099 225.562 54.1953 225.562 54.6484C225.562 55.0182 225.484 55.3568 225.328 55.6641C225.177 55.9714 224.956 56.237 224.664 56.4609C224.378 56.6797 224.034 56.8516 223.633 56.9766C223.237 57.0964 222.792 57.1562 222.297 57.1562C221.552 57.1562 220.922 57.0234 220.406 56.7578C219.891 56.4922 219.5 56.1484 219.234 55.7266C218.969 55.3047 218.836 54.8594 218.836 54.3906H220.289C220.31 54.7865 220.424 55.1016 220.633 55.3359C220.841 55.5651 221.096 55.7292 221.398 55.8281C221.701 55.9219 222 55.9688 222.297 55.9688C222.693 55.9688 223.023 55.9167 223.289 55.8125C223.56 55.7083 223.766 55.5651 223.906 55.3828C224.047 55.2005 224.117 54.9922 224.117 54.7578ZM236.414 55.5547V51.2031C236.414 50.8698 236.346 50.5807 236.211 50.3359C236.081 50.0859 235.883 49.8932 235.617 49.7578C235.352 49.6224 235.023 49.5547 234.633 49.5547C234.268 49.5547 233.948 49.6172 233.672 49.7422C233.401 49.8672 233.188 50.0312 233.031 50.2344C232.88 50.4375 232.805 50.6562 232.805 50.8906H231.359C231.359 50.5885 231.438 50.2891 231.594 49.9922C231.75 49.6953 231.974 49.4271 232.266 49.1875C232.562 48.9427 232.917 48.75 233.328 48.6094C233.745 48.4635 234.208 48.3906 234.719 48.3906C235.333 48.3906 235.875 48.4948 236.344 48.7031C236.818 48.9115 237.188 49.2266 237.453 49.6484C237.724 50.0651 237.859 50.5885 237.859 51.2188V55.1562C237.859 55.4375 237.883 55.737 237.93 56.0547C237.982 56.3724 238.057 56.6458 238.156 56.875V57H236.648C236.576 56.8333 236.518 56.612 236.477 56.3359C236.435 56.0547 236.414 55.7943 236.414 55.5547ZM236.664 51.875L236.68 52.8906H235.219C234.807 52.8906 234.44 52.9245 234.117 52.9922C233.794 53.0547 233.523 53.151 233.305 53.2812C233.086 53.4115 232.919 53.5755 232.805 53.7734C232.69 53.9661 232.633 54.1927 232.633 54.4531C232.633 54.7188 232.693 54.9609 232.812 55.1797C232.932 55.3984 233.112 55.5729 233.352 55.7031C233.596 55.8281 233.896 55.8906 234.25 55.8906C234.693 55.8906 235.083 55.7969 235.422 55.6094C235.76 55.4219 236.029 55.1927 236.227 54.9219C236.43 54.651 236.539 54.388 236.555 54.1328L237.172 54.8281C237.135 55.0469 237.036 55.2891 236.875 55.5547C236.714 55.8203 236.497 56.0755 236.227 56.3203C235.961 56.5599 235.643 56.7604 235.273 56.9219C234.909 57.0781 234.497 57.1562 234.039 57.1562C233.466 57.1562 232.964 57.0443 232.531 56.8203C232.104 56.5964 231.771 56.2969 231.531 55.9219C231.297 55.5417 231.18 55.1172 231.18 54.6484C231.18 54.1953 231.268 53.7969 231.445 53.4531C231.622 53.1042 231.878 52.8151 232.211 52.5859C232.544 52.3516 232.945 52.1745 233.414 52.0547C233.883 51.9349 234.406 51.875 234.984 51.875H236.664ZM241.578 50.3516V57H240.133V48.5469H241.5L241.578 50.3516ZM241.234 52.4531L240.633 52.4297C240.638 51.8516 240.724 51.3177 240.891 50.8281C241.057 50.3333 241.292 49.9036 241.594 49.5391C241.896 49.1745 242.255 48.8932 242.672 48.6953C243.094 48.4922 243.56 48.3906 244.07 48.3906C244.487 48.3906 244.862 48.4479 245.195 48.5625C245.529 48.6719 245.812 48.849 246.047 49.0938C246.286 49.3385 246.469 49.6562 246.594 50.0469C246.719 50.4323 246.781 50.9036 246.781 51.4609V57H245.328V51.4453C245.328 51.0026 245.263 50.6484 245.133 50.3828C245.003 50.112 244.812 49.9167 244.562 49.7969C244.312 49.6719 244.005 49.6094 243.641 49.6094C243.281 49.6094 242.953 49.6849 242.656 49.8359C242.365 49.987 242.112 50.1953 241.898 50.4609C241.69 50.7266 241.526 51.0312 241.406 51.375C241.292 51.7135 241.234 52.0729 241.234 52.4531ZM254.305 55.3594V45H255.758V57H254.43L254.305 55.3594ZM248.617 52.8672V52.7031C248.617 52.0573 248.695 51.4714 248.852 50.9453C249.013 50.4141 249.24 49.9583 249.531 49.5781C249.828 49.1979 250.18 48.9062 250.586 48.7031C250.997 48.4948 251.456 48.3906 251.961 48.3906C252.492 48.3906 252.956 48.4844 253.352 48.6719C253.753 48.8542 254.091 49.1224 254.367 49.4766C254.648 49.8255 254.87 50.2474 255.031 50.7422C255.193 51.237 255.305 51.7969 255.367 52.4219V53.1406C255.31 53.7604 255.198 54.3177 255.031 54.8125C254.87 55.3073 254.648 55.7292 254.367 56.0781C254.091 56.4271 253.753 56.6953 253.352 56.8828C252.951 57.0651 252.482 57.1562 251.945 57.1562C251.451 57.1562 250.997 57.0495 250.586 56.8359C250.18 56.6224 249.828 56.3229 249.531 55.9375C249.24 55.5521 249.013 55.099 248.852 54.5781C248.695 54.0521 248.617 53.4818 248.617 52.8672ZM250.07 52.7031V52.8672C250.07 53.2891 250.112 53.6849 250.195 54.0547C250.284 54.4245 250.419 54.75 250.602 55.0312C250.784 55.3125 251.016 55.5339 251.297 55.6953C251.578 55.8516 251.914 55.9297 252.305 55.9297C252.784 55.9297 253.177 55.8281 253.484 55.625C253.797 55.4219 254.047 55.1536 254.234 54.8203C254.422 54.487 254.568 54.125 254.672 53.7344V51.8516C254.609 51.5651 254.518 51.2891 254.398 51.0234C254.284 50.7526 254.133 50.513 253.945 50.3047C253.763 50.0911 253.536 49.9219 253.266 49.7969C253 49.6719 252.685 49.6094 252.32 49.6094C251.924 49.6094 251.583 49.6927 251.297 49.8594C251.016 50.0208 250.784 50.2448 250.602 50.5312C250.419 50.8125 250.284 51.1406 250.195 51.5156C250.112 51.8854 250.07 52.2812 250.07 52.7031ZM268.992 53.9219C268.992 54.6146 268.831 55.2031 268.508 55.6875C268.19 56.1667 267.758 56.5312 267.211 56.7812C266.669 57.0312 266.057 57.1562 265.375 57.1562C264.693 57.1562 264.078 57.0312 263.531 56.7812C262.984 56.5312 262.552 56.1667 262.234 55.6875C261.917 55.2031 261.758 54.6146 261.758 53.9219C261.758 53.4688 261.844 53.0547 262.016 52.6797C262.193 52.2995 262.44 51.9688 262.758 51.6875C263.081 51.4062 263.461 51.1901 263.898 51.0391C264.341 50.8828 264.828 50.8047 265.359 50.8047C266.057 50.8047 266.68 50.9401 267.227 51.2109C267.773 51.4766 268.203 51.8438 268.516 52.3125C268.833 52.7812 268.992 53.3177 268.992 53.9219ZM267.539 53.8906C267.539 53.4688 267.448 53.0964 267.266 52.7734C267.083 52.4453 266.828 52.1901 266.5 52.0078C266.172 51.8255 265.792 51.7344 265.359 51.7344C264.917 51.7344 264.534 51.8255 264.211 52.0078C263.893 52.1901 263.646 52.4453 263.469 52.7734C263.292 53.0964 263.203 53.4688 263.203 53.8906C263.203 54.3281 263.289 54.7031 263.461 55.0156C263.638 55.3229 263.888 55.5599 264.211 55.7266C264.539 55.888 264.927 55.9688 265.375 55.9688C265.823 55.9688 266.208 55.888 266.531 55.7266C266.854 55.5599 267.102 55.3229 267.273 55.0156C267.451 54.7031 267.539 54.3281 267.539 53.8906ZM268.727 48.5859C268.727 49.138 268.581 49.6354 268.289 50.0781C267.997 50.5208 267.599 50.8698 267.094 51.125C266.589 51.3802 266.016 51.5078 265.375 51.5078C264.724 51.5078 264.143 51.3802 263.633 51.125C263.128 50.8698 262.732 50.5208 262.445 50.0781C262.159 49.6354 262.016 49.138 262.016 48.5859C262.016 47.9245 262.159 47.362 262.445 46.8984C262.737 46.4349 263.135 46.0807 263.641 45.8359C264.146 45.5911 264.721 45.4688 265.367 45.4688C266.018 45.4688 266.596 45.5911 267.102 45.8359C267.607 46.0807 268.003 46.4349 268.289 46.8984C268.581 47.362 268.727 47.9245 268.727 48.5859ZM267.281 48.6094C267.281 48.2292 267.201 47.8932 267.039 47.6016C266.878 47.3099 266.654 47.0807 266.367 46.9141C266.081 46.7422 265.747 46.6562 265.367 46.6562C264.987 46.6562 264.654 46.737 264.367 46.8984C264.086 47.0547 263.865 47.2786 263.703 47.5703C263.547 47.862 263.469 48.2083 263.469 48.6094C263.469 49 263.547 49.3411 263.703 49.6328C263.865 49.9245 264.089 50.151 264.375 50.3125C264.661 50.474 264.995 50.5547 265.375 50.5547C265.755 50.5547 266.086 50.474 266.367 50.3125C266.654 50.151 266.878 49.9245 267.039 49.6328C267.201 49.3411 267.281 49 267.281 48.6094ZM277.992 53.9219C277.992 54.6146 277.831 55.2031 277.508 55.6875C277.19 56.1667 276.758 56.5312 276.211 56.7812C275.669 57.0312 275.057 57.1562 274.375 57.1562C273.693 57.1562 273.078 57.0312 272.531 56.7812C271.984 56.5312 271.552 56.1667 271.234 55.6875C270.917 55.2031 270.758 54.6146 270.758 53.9219C270.758 53.4688 270.844 53.0547 271.016 52.6797C271.193 52.2995 271.44 51.9688 271.758 51.6875C272.081 51.4062 272.461 51.1901 272.898 51.0391C273.341 50.8828 273.828 50.8047 274.359 50.8047C275.057 50.8047 275.68 50.9401 276.227 51.2109C276.773 51.4766 277.203 51.8438 277.516 52.3125C277.833 52.7812 277.992 53.3177 277.992 53.9219ZM276.539 53.8906C276.539 53.4688 276.448 53.0964 276.266 52.7734C276.083 52.4453 275.828 52.1901 275.5 52.0078C275.172 51.8255 274.792 51.7344 274.359 51.7344C273.917 51.7344 273.534 51.8255 273.211 52.0078C272.893 52.1901 272.646 52.4453 272.469 52.7734C272.292 53.0964 272.203 53.4688 272.203 53.8906C272.203 54.3281 272.289 54.7031 272.461 55.0156C272.638 55.3229 272.888 55.5599 273.211 55.7266C273.539 55.888 273.927 55.9688 274.375 55.9688C274.823 55.9688 275.208 55.888 275.531 55.7266C275.854 55.5599 276.102 55.3229 276.273 55.0156C276.451 54.7031 276.539 54.3281 276.539 53.8906ZM277.727 48.5859C277.727 49.138 277.581 49.6354 277.289 50.0781C276.997 50.5208 276.599 50.8698 276.094 51.125C275.589 51.3802 275.016 51.5078 274.375 51.5078C273.724 51.5078 273.143 51.3802 272.633 51.125C272.128 50.8698 271.732 50.5208 271.445 50.0781C271.159 49.6354 271.016 49.138 271.016 48.5859C271.016 47.9245 271.159 47.362 271.445 46.8984C271.737 46.4349 272.135 46.0807 272.641 45.8359C273.146 45.5911 273.721 45.4688 274.367 45.4688C275.018 45.4688 275.596 45.5911 276.102 45.8359C276.607 46.0807 277.003 46.4349 277.289 46.8984C277.581 47.362 277.727 47.9245 277.727 48.5859ZM276.281 48.6094C276.281 48.2292 276.201 47.8932 276.039 47.6016C275.878 47.3099 275.654 47.0807 275.367 46.9141C275.081 46.7422 274.747 46.6562 274.367 46.6562C273.987 46.6562 273.654 46.737 273.367 46.8984C273.086 47.0547 272.865 47.2786 272.703 47.5703C272.547 47.862 272.469 48.2083 272.469 48.6094C272.469 49 272.547 49.3411 272.703 49.6328C272.865 49.9245 273.089 50.151 273.375 50.3125C273.661 50.474 273.995 50.5547 274.375 50.5547C274.755 50.5547 275.086 50.474 275.367 50.3125C275.654 50.151 275.878 49.9245 276.039 49.6328C276.201 49.3411 276.281 49 276.281 48.6094ZM279.695 48.4141V47.8125C279.695 47.3802 279.789 46.987 279.977 46.6328C280.164 46.2786 280.432 45.9948 280.781 45.7812C281.13 45.5677 281.544 45.4609 282.023 45.4609C282.513 45.4609 282.93 45.5677 283.273 45.7812C283.622 45.9948 283.891 46.2786 284.078 46.6328C284.266 46.987 284.359 47.3802 284.359 47.8125V48.4141C284.359 48.8359 284.266 49.224 284.078 49.5781C283.896 49.9323 283.63 50.2161 283.281 50.4297C282.938 50.6432 282.523 50.75 282.039 50.75C281.555 50.75 281.135 50.6432 280.781 50.4297C280.432 50.2161 280.164 49.9323 279.977 49.5781C279.789 49.224 279.695 48.8359 279.695 48.4141ZM280.781 47.8125V48.4141C280.781 48.6536 280.826 48.8802 280.914 49.0938C281.008 49.3073 281.148 49.4818 281.336 49.6172C281.523 49.7474 281.758 49.8125 282.039 49.8125C282.32 49.8125 282.552 49.7474 282.734 49.6172C282.917 49.4818 283.052 49.3073 283.141 49.0938C283.229 48.8802 283.273 48.6536 283.273 48.4141V47.8125C283.273 47.5677 283.227 47.3385 283.133 47.125C283.044 46.9062 282.906 46.7318 282.719 46.6016C282.536 46.4661 282.305 46.3984 282.023 46.3984C281.747 46.3984 281.516 46.4661 281.328 46.6016C281.146 46.7318 281.008 46.9062 280.914 47.125C280.826 47.3385 280.781 47.5677 280.781 47.8125ZM285.234 54.8203V54.2109C285.234 53.7839 285.328 53.3932 285.516 53.0391C285.703 52.6849 285.971 52.401 286.32 52.1875C286.669 51.974 287.083 51.8672 287.562 51.8672C288.052 51.8672 288.469 51.974 288.812 52.1875C289.161 52.401 289.43 52.6849 289.617 53.0391C289.805 53.3932 289.898 53.7839 289.898 54.2109V54.8203C289.898 55.2474 289.805 55.638 289.617 55.9922C289.435 56.3464 289.169 56.6302 288.82 56.8438C288.477 57.0573 288.062 57.1641 287.578 57.1641C287.094 57.1641 286.677 57.0573 286.328 56.8438C285.979 56.6302 285.708 56.3464 285.516 55.9922C285.328 55.638 285.234 55.2474 285.234 54.8203ZM286.32 54.2109V54.8203C286.32 55.0599 286.365 55.2891 286.453 55.5078C286.547 55.7214 286.688 55.8958 286.875 56.0312C287.062 56.1615 287.297 56.2266 287.578 56.2266C287.859 56.2266 288.091 56.1615 288.273 56.0312C288.461 55.8958 288.599 55.7214 288.688 55.5078C288.776 55.2943 288.82 55.0651 288.82 54.8203V54.2109C288.82 53.9661 288.773 53.737 288.68 53.5234C288.591 53.3099 288.453 53.138 288.266 53.0078C288.083 52.8724 287.849 52.8047 287.562 52.8047C287.286 52.8047 287.055 52.8724 286.867 53.0078C286.685 53.138 286.547 53.3099 286.453 53.5234C286.365 53.737 286.32 53.9661 286.32 54.2109ZM287.922 47.2422L282.367 56.1328L281.555 55.6172L287.109 46.7266L287.922 47.2422ZM6.08594 77.5547V73.2031C6.08594 72.8698 6.01823 72.5807 5.88281 72.3359C5.7526 72.0859 5.55469 71.8932 5.28906 71.7578C5.02344 71.6224 4.69531 71.5547 4.30469 71.5547C3.9401 71.5547 3.61979 71.6172 3.34375 71.7422C3.07292 71.8672 2.85938 72.0312 2.70312 72.2344C2.55208 72.4375 2.47656 72.6562 2.47656 72.8906H1.03125C1.03125 72.5885 1.10938 72.2891 1.26562 71.9922C1.42188 71.6953 1.64583 71.4271 1.9375 71.1875C2.23438 70.9427 2.58854 70.75 3 70.6094C3.41667 70.4635 3.88021 70.3906 4.39062 70.3906C5.00521 70.3906 5.54688 70.4948 6.01562 70.7031C6.48958 70.9115 6.85938 71.2266 7.125 71.6484C7.39583 72.0651 7.53125 72.5885 7.53125 73.2188V77.1562C7.53125 77.4375 7.55469 77.737 7.60156 78.0547C7.65365 78.3724 7.72917 78.6458 7.82812 78.875V79H6.32031C6.2474 78.8333 6.1901 78.612 6.14844 78.3359C6.10677 78.0547 6.08594 77.7943 6.08594 77.5547ZM6.33594 73.875L6.35156 74.8906H4.89062C4.47917 74.8906 4.11198 74.9245 3.78906 74.9922C3.46615 75.0547 3.19531 75.151 2.97656 75.2812C2.75781 75.4115 2.59115 75.5755 2.47656 75.7734C2.36198 75.9661 2.30469 76.1927 2.30469 76.4531C2.30469 76.7188 2.36458 76.9609 2.48438 77.1797C2.60417 77.3984 2.78385 77.5729 3.02344 77.7031C3.26823 77.8281 3.56771 77.8906 3.92188 77.8906C4.36458 77.8906 4.75521 77.7969 5.09375 77.6094C5.43229 77.4219 5.70052 77.1927 5.89844 76.9219C6.10156 76.651 6.21094 76.388 6.22656 76.1328L6.84375 76.8281C6.80729 77.0469 6.70833 77.2891 6.54688 77.5547C6.38542 77.8203 6.16927 78.0755 5.89844 78.3203C5.63281 78.5599 5.3151 78.7604 4.94531 78.9219C4.58073 79.0781 4.16927 79.1562 3.71094 79.1562C3.13802 79.1562 2.63542 79.0443 2.20312 78.8203C1.77604 78.5964 1.44271 78.2969 1.20312 77.9219C0.96875 77.5417 0.851562 77.1172 0.851562 76.6484C0.851562 76.1953 0.940104 75.7969 1.11719 75.4531C1.29427 75.1042 1.54948 74.8151 1.88281 74.5859C2.21615 74.3516 2.61719 74.1745 3.08594 74.0547C3.55469 73.9349 4.07812 73.875 4.65625 73.875H6.33594ZM13.1875 77.9688C13.5312 77.9688 13.849 77.8984 14.1406 77.7578C14.4323 77.6172 14.6719 77.4245 14.8594 77.1797C15.0469 76.9297 15.1536 76.6458 15.1797 76.3281H16.5547C16.5286 76.8281 16.3594 77.2943 16.0469 77.7266C15.7396 78.1536 15.3359 78.5 14.8359 78.7656C14.3359 79.026 13.7865 79.1562 13.1875 79.1562C12.5521 79.1562 11.9974 79.0443 11.5234 78.8203C11.0547 78.5964 10.6641 78.2891 10.3516 77.8984C10.0443 77.5078 9.8125 77.0599 9.65625 76.5547C9.50521 76.0443 9.42969 75.5052 9.42969 74.9375V74.6094C9.42969 74.0417 9.50521 73.5052 9.65625 73C9.8125 72.4896 10.0443 72.0391 10.3516 71.6484C10.6641 71.2578 11.0547 70.9505 11.5234 70.7266C11.9974 70.5026 12.5521 70.3906 13.1875 70.3906C13.849 70.3906 14.4271 70.526 14.9219 70.7969C15.4167 71.0625 15.8047 71.4271 16.0859 71.8906C16.3724 72.349 16.5286 72.8698 16.5547 73.4531H15.1797C15.1536 73.1042 15.0547 72.7891 14.8828 72.5078C14.7161 72.2266 14.487 72.0026 14.1953 71.8359C13.9089 71.6641 13.5729 71.5781 13.1875 71.5781C12.7448 71.5781 12.3724 71.6667 12.0703 71.8438C11.7734 72.0156 11.5365 72.25 11.3594 72.5469C11.1875 72.8385 11.0625 73.1641 10.9844 73.5234C10.9115 73.8776 10.875 74.2396 10.875 74.6094V74.9375C10.875 75.3073 10.9115 75.6719 10.9844 76.0312C11.0573 76.3906 11.1797 76.7161 11.3516 77.0078C11.5286 77.2995 11.7656 77.5339 12.0625 77.7109C12.3646 77.8828 12.7396 77.9688 13.1875 77.9688ZM21.5625 77.9688C21.9062 77.9688 22.224 77.8984 22.5156 77.7578C22.8073 77.6172 23.0469 77.4245 23.2344 77.1797C23.4219 76.9297 23.5286 76.6458 23.5547 76.3281H24.9297C24.9036 76.8281 24.7344 77.2943 24.4219 77.7266C24.1146 78.1536 23.7109 78.5 23.2109 78.7656C22.7109 79.026 22.1615 79.1562 21.5625 79.1562C20.9271 79.1562 20.3724 79.0443 19.8984 78.8203C19.4297 78.5964 19.0391 78.2891 18.7266 77.8984C18.4193 77.5078 18.1875 77.0599 18.0312 76.5547C17.8802 76.0443 17.8047 75.5052 17.8047 74.9375V74.6094C17.8047 74.0417 17.8802 73.5052 18.0312 73C18.1875 72.4896 18.4193 72.0391 18.7266 71.6484C19.0391 71.2578 19.4297 70.9505 19.8984 70.7266C20.3724 70.5026 20.9271 70.3906 21.5625 70.3906C22.224 70.3906 22.8021 70.526 23.2969 70.7969C23.7917 71.0625 24.1797 71.4271 24.4609 71.8906C24.7474 72.349 24.9036 72.8698 24.9297 73.4531H23.5547C23.5286 73.1042 23.4297 72.7891 23.2578 72.5078C23.0911 72.2266 22.862 72.0026 22.5703 71.8359C22.2839 71.6641 21.9479 71.5781 21.5625 71.5781C21.1198 71.5781 20.7474 71.6667 20.4453 71.8438C20.1484 72.0156 19.9115 72.25 19.7344 72.5469C19.5625 72.8385 19.4375 73.1641 19.3594 73.5234C19.2865 73.8776 19.25 74.2396 19.25 74.6094V74.9375C19.25 75.3073 19.2865 75.6719 19.3594 76.0312C19.4323 76.3906 19.5547 76.7161 19.7266 77.0078C19.9036 77.2995 20.1406 77.5339 20.4375 77.7109C20.7396 77.8828 21.1146 77.9688 21.5625 77.9688ZM31.7266 77.0469V70.5469H33.1797V79H31.7969L31.7266 77.0469ZM32 75.2656L32.6016 75.25C32.6016 75.8125 32.5417 76.3333 32.4219 76.8125C32.3073 77.2865 32.1198 77.6979 31.8594 78.0469C31.599 78.3958 31.2578 78.6693 30.8359 78.8672C30.4141 79.0599 29.901 79.1562 29.2969 79.1562C28.8854 79.1562 28.5078 79.0964 28.1641 78.9766C27.8255 78.8568 27.5339 78.6719 27.2891 78.4219C27.0443 78.1719 26.8542 77.8464 26.7188 77.4453C26.5885 77.0443 26.5234 76.5625 26.5234 76V70.5469H27.9688V76.0156C27.9688 76.3958 28.0104 76.7109 28.0938 76.9609C28.1823 77.2057 28.2995 77.401 28.4453 77.5469C28.5964 77.6875 28.763 77.7865 28.9453 77.8438C29.1328 77.901 29.3255 77.9297 29.5234 77.9297C30.138 77.9297 30.625 77.8125 30.9844 77.5781C31.3438 77.3385 31.6016 77.0182 31.7578 76.6172C31.9193 76.2109 32 75.7604 32 75.2656ZM36.8281 71.875V79H35.3828V70.5469H36.7891L36.8281 71.875ZM39.4688 70.5L39.4609 71.8438C39.3411 71.8177 39.2266 71.8021 39.1172 71.7969C39.013 71.7865 38.8932 71.7812 38.7578 71.7812C38.4245 71.7812 38.1302 71.8333 37.875 71.9375C37.6198 72.0417 37.4036 72.1875 37.2266 72.375C37.0495 72.5625 36.9089 72.7865 36.8047 73.0469C36.7057 73.3021 36.6406 73.5833 36.6094 73.8906L36.2031 74.125C36.2031 73.6146 36.2526 73.1354 36.3516 72.6875C36.4557 72.2396 36.6146 71.8438 36.8281 71.5C37.0417 71.151 37.3125 70.8802 37.6406 70.6875C37.974 70.4896 38.3698 70.3906 38.8281 70.3906C38.9323 70.3906 39.0521 70.4036 39.1875 70.4297C39.3229 70.4505 39.4167 70.474 39.4688 70.5ZM45.4766 77.5547V73.2031C45.4766 72.8698 45.4089 72.5807 45.2734 72.3359C45.1432 72.0859 44.9453 71.8932 44.6797 71.7578C44.4141 71.6224 44.0859 71.5547 43.6953 71.5547C43.3307 71.5547 43.0104 71.6172 42.7344 71.7422C42.4635 71.8672 42.25 72.0312 42.0938 72.2344C41.9427 72.4375 41.8672 72.6562 41.8672 72.8906H40.4219C40.4219 72.5885 40.5 72.2891 40.6562 71.9922C40.8125 71.6953 41.0365 71.4271 41.3281 71.1875C41.625 70.9427 41.9792 70.75 42.3906 70.6094C42.8073 70.4635 43.2708 70.3906 43.7812 70.3906C44.3958 70.3906 44.9375 70.4948 45.4062 70.7031C45.8802 70.9115 46.25 71.2266 46.5156 71.6484C46.7865 72.0651 46.9219 72.5885 46.9219 73.2188V77.1562C46.9219 77.4375 46.9453 77.737 46.9922 78.0547C47.0443 78.3724 47.1198 78.6458 47.2188 78.875V79H45.7109C45.638 78.8333 45.5807 78.612 45.5391 78.3359C45.4974 78.0547 45.4766 77.7943 45.4766 77.5547ZM45.7266 73.875L45.7422 74.8906H44.2812C43.8698 74.8906 43.5026 74.9245 43.1797 74.9922C42.8568 75.0547 42.5859 75.151 42.3672 75.2812C42.1484 75.4115 41.9818 75.5755 41.8672 75.7734C41.7526 75.9661 41.6953 76.1927 41.6953 76.4531C41.6953 76.7188 41.7552 76.9609 41.875 77.1797C41.9948 77.3984 42.1745 77.5729 42.4141 77.7031C42.6589 77.8281 42.9583 77.8906 43.3125 77.8906C43.7552 77.8906 44.1458 77.7969 44.4844 77.6094C44.8229 77.4219 45.0911 77.1927 45.2891 76.9219C45.4922 76.651 45.6016 76.388 45.6172 76.1328L46.2344 76.8281C46.1979 77.0469 46.099 77.2891 45.9375 77.5547C45.776 77.8203 45.5599 78.0755 45.2891 78.3203C45.0234 78.5599 44.7057 78.7604 44.3359 78.9219C43.9714 79.0781 43.5599 79.1562 43.1016 79.1562C42.5286 79.1562 42.026 79.0443 41.5938 78.8203C41.1667 78.5964 40.8333 78.2969 40.5938 77.9219C40.3594 77.5417 40.2422 77.1172 40.2422 76.6484C40.2422 76.1953 40.3307 75.7969 40.5078 75.4531C40.6849 75.1042 40.9401 74.8151 41.2734 74.5859C41.6068 74.3516 42.0078 74.1745 42.4766 74.0547C42.9453 73.9349 43.4688 73.875 44.0469 73.875H45.7266ZM52.5781 77.9688C52.9219 77.9688 53.2396 77.8984 53.5312 77.7578C53.8229 77.6172 54.0625 77.4245 54.25 77.1797C54.4375 76.9297 54.5443 76.6458 54.5703 76.3281H55.9453C55.9193 76.8281 55.75 77.2943 55.4375 77.7266C55.1302 78.1536 54.7266 78.5 54.2266 78.7656C53.7266 79.026 53.1771 79.1562 52.5781 79.1562C51.9427 79.1562 51.388 79.0443 50.9141 78.8203C50.4453 78.5964 50.0547 78.2891 49.7422 77.8984C49.4349 77.5078 49.2031 77.0599 49.0469 76.5547C48.8958 76.0443 48.8203 75.5052 48.8203 74.9375V74.6094C48.8203 74.0417 48.8958 73.5052 49.0469 73C49.2031 72.4896 49.4349 72.0391 49.7422 71.6484C50.0547 71.2578 50.4453 70.9505 50.9141 70.7266C51.388 70.5026 51.9427 70.3906 52.5781 70.3906C53.2396 70.3906 53.8177 70.526 54.3125 70.7969C54.8073 71.0625 55.1953 71.4271 55.4766 71.8906C55.763 72.349 55.9193 72.8698 55.9453 73.4531H54.5703C54.5443 73.1042 54.4453 72.7891 54.2734 72.5078C54.1068 72.2266 53.8776 72.0026 53.5859 71.8359C53.2995 71.6641 52.9635 71.5781 52.5781 71.5781C52.1354 71.5781 51.763 71.6667 51.4609 71.8438C51.1641 72.0156 50.9271 72.25 50.75 72.5469C50.5781 72.8385 50.4531 73.1641 50.375 73.5234C50.3021 73.8776 50.2656 74.2396 50.2656 74.6094V74.9375C50.2656 75.3073 50.3021 75.6719 50.375 76.0312C50.4479 76.3906 50.5703 76.7161 50.7422 77.0078C50.9193 77.2995 51.1562 77.5339 51.4531 77.7109C51.7552 77.8828 52.1302 77.9688 52.5781 77.9688ZM59.9453 78.125L62.2969 70.5469H63.8438L60.4531 80.3047C60.375 80.513 60.2708 80.737 60.1406 80.9766C60.0156 81.2214 59.8542 81.4531 59.6562 81.6719C59.4583 81.8906 59.2188 82.0677 58.9375 82.2031C58.6615 82.3438 58.3307 82.4141 57.9453 82.4141C57.8307 82.4141 57.6849 82.3984 57.5078 82.3672C57.3307 82.3359 57.2057 82.3099 57.1328 82.2891L57.125 81.1172C57.1667 81.1224 57.2318 81.1276 57.3203 81.1328C57.4141 81.1432 57.4792 81.1484 57.5156 81.1484C57.8438 81.1484 58.1224 81.1042 58.3516 81.0156C58.5807 80.9323 58.7734 80.7891 58.9297 80.5859C59.0911 80.388 59.2292 80.1146 59.3438 79.7656L59.9453 78.125ZM58.2188 70.5469L60.4141 77.1094L60.7891 78.6328L59.75 79.1641L56.6406 70.5469H58.2188ZM64.3281 78.2344C64.3281 77.9896 64.4036 77.7839 64.5547 77.6172C64.7109 77.4453 64.9349 77.3594 65.2266 77.3594C65.5182 77.3594 65.7396 77.4453 65.8906 77.6172C66.0469 77.7839 66.125 77.9896 66.125 78.2344C66.125 78.474 66.0469 78.6771 65.8906 78.8438C65.7396 79.0104 65.5182 79.0938 65.2266 79.0938C64.9349 79.0938 64.7109 79.0104 64.5547 78.8438C64.4036 78.6771 64.3281 78.474 64.3281 78.2344Z" fill="#13231B" fill-opacity="0.7"/>
</svg>
