<svg width="36" height="36" viewBox="0 0 36 36" fill="none" xmlns="http://www.w3.org/2000/svg">
<rect width="36" height="36" rx="8" fill="black" fill-opacity="0.24"/>
<path d="M26.9974 23.0458C26.9961 23.0067 26.9947 22.9674 26.9933 22.9279C26.9919 22.8885 26.9905 22.8489 26.989 22.8092L26.9879 22.7794L26.9873 22.7645L26.9871 22.7608L26.9868 22.7274L26.9866 22.7259L26.9862 22.7197L26.9824 22.6703C26.9772 22.6044 26.9721 22.5382 26.967 22.472L26.963 22.4219L26.9571 22.3569C26.953 22.3136 26.949 22.2704 26.9449 22.2273C26.9407 22.1843 26.9364 22.1413 26.9322 22.0985C26.93 22.0771 26.9279 22.0558 26.9257 22.0345C26.9231 22.0147 26.9205 21.995 26.9179 21.9754C26.8963 21.8192 26.877 21.6657 26.8495 21.5182C26.8365 21.4444 26.8245 21.3718 26.811 21.301C26.7963 21.2304 26.7819 21.1614 26.7679 21.0942C26.7413 20.9597 26.708 20.8341 26.6798 20.718C26.6726 20.6891 26.6656 20.6606 26.6587 20.6329C26.6511 20.6053 26.6436 20.5784 26.6363 20.5521C26.6214 20.4997 26.6074 20.45 26.5942 20.4033C26.5807 20.3567 26.5689 20.3129 26.5565 20.2728C26.5437 20.2328 26.532 20.196 26.5214 20.1628C26.5057 20.114 26.4924 20.073 26.482 20.0405C26.4666 19.9926 26.4159 19.9656 26.3675 19.9794L23.3244 20.8467C23.278 20.8599 23.2493 20.9061 23.2581 20.9535C23.2614 20.9712 23.2652 20.9915 23.2694 21.0141C23.2737 21.037 23.2785 21.0623 23.2837 21.0898C23.2887 21.1174 23.2926 21.1477 23.2976 21.1796C23.3024 21.2116 23.3076 21.2457 23.3131 21.2816C23.3158 21.2996 23.3189 21.3178 23.3214 21.3368C23.3236 21.3557 23.3258 21.3751 23.3281 21.3949C23.3365 21.4742 23.3492 21.5592 23.3548 21.6503C23.3586 21.6957 23.3624 21.7423 23.3664 21.7898C23.3693 21.8375 23.3708 21.8864 23.3733 21.9359C23.3799 22.0346 23.3787 22.1375 23.3806 22.2412L23.381 22.2798L23.3797 22.314C23.3789 22.3368 23.3781 22.3597 23.3773 22.3826C23.3767 22.4054 23.3761 22.4282 23.3754 22.4511L23.3747 22.4854L23.3726 22.5347C23.3698 22.601 23.367 22.6674 23.3642 22.7334L23.362 22.783L23.3618 22.7891L23.3617 22.7906C23.3617 22.7981 23.3611 22.7317 23.3613 22.7604L23.3611 22.7628L23.3602 22.7726L23.3584 22.7921C23.356 22.8181 23.3537 22.844 23.3513 22.8698C23.3491 22.8956 23.3468 22.9213 23.3446 22.9468C23.3416 22.9722 23.3386 22.9976 23.3355 23.0227C23.3291 23.0729 23.3251 23.1226 23.3171 23.1711C23.3101 23.2196 23.3032 23.2672 23.2965 23.3138C23.2884 23.3602 23.2805 23.4055 23.2728 23.4496C23.2659 23.4938 23.2566 23.5363 23.2484 23.5774C23.2397 23.6185 23.2328 23.6584 23.2239 23.6963C23.2152 23.7341 23.2068 23.7703 23.1988 23.8048C23.1949 23.8218 23.191 23.8384 23.1873 23.8546C23.1835 23.8684 23.1798 23.8818 23.1762 23.8948C23.1741 23.9028 23.172 23.9103 23.17 23.918H26.8919C26.9418 23.918 26.9834 23.8788 26.9853 23.829C26.9853 23.8287 26.9853 23.8284 26.9853 23.8281C26.9884 23.7588 26.9916 23.6876 26.9948 23.6148C26.9962 23.5422 26.9976 23.4679 26.9991 23.3924C27.0012 23.3169 26.9989 23.2402 26.9987 23.1627C26.9983 23.124 26.9979 23.085 26.9974 23.0458Z" fill="white" fill-opacity="0.7"/>
<path d="M26.0297 19.1393C26.0796 19.1192 26.1024 19.0613 26.0794 19.0127C26.0691 18.9911 26.0572 18.9658 26.0436 18.9372C26.0309 18.9103 26.0167 18.8806 26.0014 18.8482C25.9815 18.8077 25.96 18.764 25.937 18.7172C25.9139 18.6706 25.8893 18.621 25.8633 18.5687C25.8501 18.5416 25.8372 18.5192 25.8236 18.4937C25.8101 18.4687 25.7963 18.4432 25.7822 18.4172C25.7538 18.3652 25.7248 18.3108 25.6937 18.2551C25.6615 18.2001 25.6283 18.1431 25.5941 18.0846C25.577 18.0554 25.5596 18.0258 25.542 17.9958C25.5237 17.9663 25.505 17.9365 25.4862 17.9063C25.4484 17.8463 25.4097 17.7849 25.3704 17.7224C25.2875 17.6002 25.2049 17.4724 25.1128 17.348C25.0902 17.3167 25.0674 17.2853 25.0446 17.2537L25.0103 17.2065L24.9746 17.16C24.9269 17.0982 24.8789 17.0361 24.831 16.9741C24.7822 16.9128 24.7317 16.8527 24.6823 16.7924C24.6572 16.7625 24.633 16.7321 24.6075 16.7029C24.5819 16.6737 24.5564 16.6446 24.5309 16.6157C24.5055 16.5868 24.4802 16.558 24.4549 16.5294C24.4299 16.5006 24.4046 16.4724 24.3785 16.4451C24.3269 16.3901 24.2759 16.3358 24.2258 16.2824C24.1756 16.2292 24.1236 16.1791 24.0741 16.1291C24.0243 16.0793 23.9759 16.0305 23.9264 15.9851C23.8775 15.9393 23.8299 15.8948 23.7839 15.8517C23.7381 15.8085 23.6913 15.7693 23.6478 15.7305C23.6038 15.692 23.5617 15.6552 23.5216 15.6202C23.4806 15.5864 23.4416 15.5543 23.405 15.5241C23.3683 15.494 23.3341 15.4659 23.3024 15.4399C23.2706 15.414 23.2402 15.3916 23.2135 15.3706C23.1745 15.3407 23.1415 15.3154 23.1154 15.2954C23.0755 15.2647 23.0186 15.2713 22.9866 15.3101L21.3532 17.2871C21.3224 17.3244 21.3251 17.3789 21.3594 17.413C21.3731 17.4264 21.3889 17.4421 21.4066 17.4596C21.4236 17.4767 21.4431 17.4948 21.463 17.5159C21.483 17.537 21.5046 17.5598 21.5276 17.5842C21.5507 17.6084 21.5753 17.6342 21.6011 17.6614C21.6261 17.6895 21.6523 17.7191 21.6797 17.7499C21.7067 17.781 21.7363 17.8119 21.7644 17.8464C21.7928 17.8805 21.8221 17.9157 21.8523 17.9519C21.883 17.9875 21.9123 18.0262 21.9426 18.0652C21.9727 18.1045 22.0048 18.1432 22.0349 18.1848C22.0651 18.2262 22.0958 18.2683 22.1268 18.3109C22.1427 18.3319 22.1577 18.3538 22.1725 18.376C22.1875 18.3981 22.2025 18.4202 22.2176 18.4424C22.2327 18.4646 22.248 18.4868 22.2632 18.5091C22.2784 18.5315 22.2923 18.5548 22.307 18.5776C22.3358 18.6237 22.3657 18.6691 22.3941 18.7155C22.4217 18.7624 22.4493 18.8092 22.4768 18.8559L22.4975 18.8907L22.5168 18.9263C22.5298 18.9499 22.5426 18.9735 22.5555 18.9969C22.6084 19.0895 22.6531 19.1851 22.6999 19.2748C22.7213 19.3208 22.7424 19.366 22.763 19.4103C22.7733 19.4324 22.7835 19.4542 22.7935 19.4757C22.8029 19.4977 22.8121 19.5193 22.8212 19.5407C22.8395 19.5833 22.8572 19.6247 22.8745 19.6648C22.8904 19.7054 22.9057 19.7446 22.9205 19.7822C22.9278 19.801 22.935 19.8194 22.9421 19.8374C22.9488 19.8549 22.957 19.8739 22.9615 19.8885C22.972 19.9192 22.9819 19.9483 22.9913 19.9757C23.0008 20.0029 23.0098 20.0283 23.0181 20.0518C23.0289 20.0842 23.0389 20.1139 23.0479 20.1408C23.0579 20.1708 23.0667 20.1973 23.0743 20.2201C23.0913 20.2711 23.1478 20.2971 23.1978 20.2771L26.0297 19.1393Z" fill="white" fill-opacity="0.7"/>
<path d="M17.7121 15.6078C17.7369 15.6112 17.7642 15.6149 17.794 15.619C17.8237 15.6242 17.8557 15.6298 17.89 15.6357C17.9242 15.6416 17.9605 15.6478 17.9989 15.6544C18.0322 15.66 18.0667 15.668 18.1025 15.6755L19.1333 13.567C19.0822 13.559 19.0316 13.5511 18.9819 13.5434C18.9479 13.5383 18.9144 13.5325 18.881 13.5283C18.8476 13.5243 18.8147 13.5203 18.7821 13.5163C18.7172 13.5086 18.654 13.5011 18.5929 13.4939C18.5316 13.4886 18.4724 13.4835 18.4156 13.4787C18.3587 13.4743 18.3045 13.4686 18.2526 13.4661C18.2008 13.4636 18.1517 13.4611 18.1055 13.4589C18.0594 13.4567 18.0162 13.4546 17.9763 13.4528C17.9364 13.4521 17.8997 13.4515 17.8666 13.451C17.82 13.4504 17.7804 13.45 17.7487 13.4496C17.6984 13.449 17.6568 13.4883 17.6543 13.5385L17.5604 15.501C17.558 15.5494 17.5929 15.5915 17.6409 15.5981C17.6613 15.6009 17.6851 15.6041 17.7121 15.6078Z" fill="white" fill-opacity="0.7"/>
<path d="M20.4826 16.6885C20.5103 16.7086 20.5366 16.7277 20.5612 16.7457C20.5859 16.7634 20.6091 16.7799 20.6305 16.7953C20.6397 16.8016 20.655 16.8132 20.6675 16.8225C20.6804 16.8321 20.6926 16.8413 20.7042 16.8499C20.7296 16.8689 20.752 16.8856 20.7712 16.8999C20.8143 16.9321 20.8755 16.9212 20.905 16.8762L22.2508 14.8262C22.2804 14.7812 22.2661 14.7207 22.2194 14.6939C22.1986 14.682 22.1744 14.6681 22.1469 14.6524C22.1343 14.6451 22.1211 14.6375 22.1071 14.6296C22.092 14.621 22.0761 14.612 22.0596 14.6026C22.0213 14.5815 21.9798 14.5587 21.9356 14.5343C21.8913 14.5102 21.8442 14.4846 21.7946 14.4575C21.7473 14.4338 21.6976 14.4089 21.6457 14.3829C21.5936 14.3574 21.5404 14.3291 21.4834 14.3035C21.4266 14.2775 21.368 14.2506 21.3077 14.2229C21.2478 14.1947 21.1846 14.169 21.1204 14.1421C21.056 14.1157 20.9912 14.0868 20.9235 14.0614C20.9063 14.0549 20.8889 14.0483 20.8717 14.0418L20.2911 16.5617C20.3232 16.5819 20.3534 16.6032 20.3832 16.6225C20.4179 16.6455 20.451 16.6675 20.4826 16.6885Z" fill="white" fill-opacity="0.7"/>
<path d="M15.905 15.5976C15.931 15.5941 15.9566 15.5899 15.982 15.5872C16.0075 15.5846 16.0327 15.5821 16.0575 15.5795C16.1071 15.5744 16.1553 15.5694 16.2019 15.5645C16.2487 15.5614 16.2938 15.5584 16.3372 15.5555C16.3588 15.554 16.38 15.5526 16.4007 15.5511C16.4214 15.5498 16.4421 15.548 16.4598 15.548C16.4964 15.547 16.5311 15.5461 16.5636 15.5453C16.5961 15.5442 16.6265 15.5433 16.6546 15.5424C16.6892 15.5422 16.7211 15.5419 16.7498 15.5418C16.7814 15.5416 16.8094 15.5414 16.8333 15.5413C16.8871 15.541 16.9294 15.4954 16.9259 15.4418L16.8047 13.5931C16.8012 13.5394 16.7533 13.4997 16.7 13.5065C16.6762 13.5094 16.6485 13.513 16.6171 13.5169C16.588 13.5206 16.5558 13.5247 16.5207 13.5292C16.4792 13.5353 16.4344 13.542 16.3865 13.5491C16.3387 13.5564 16.2879 13.5641 16.2343 13.5723C16.2068 13.5761 16.1816 13.5813 16.1551 13.5863C16.1286 13.5913 16.1016 13.5965 16.074 13.6018C16.0189 13.6124 15.9615 13.6235 15.902 13.635C15.843 13.6484 15.782 13.6623 15.7193 13.6766C15.688 13.6838 15.6563 13.6911 15.6242 13.6985C15.5922 13.706 15.56 13.7151 15.5274 13.7236C15.4623 13.7409 15.3959 13.7586 15.3283 13.7766C15.2613 13.7968 15.1933 13.8173 15.1244 13.8381C15.0901 13.8487 15.0554 13.8587 15.0209 13.8701C14.9866 13.8818 14.952 13.8936 14.9174 13.9054C14.8827 13.9173 14.848 13.9292 14.8131 13.9411C14.7783 13.953 14.7434 13.9649 14.7089 13.9785C14.6399 14.0048 14.5705 14.0313 14.5012 14.0578C14.4322 14.0848 14.3643 14.1147 14.2962 14.1431C14.2623 14.1575 14.2283 14.1715 14.1948 14.1863C14.1615 14.2017 14.1283 14.217 14.0953 14.2322C14.0623 14.2475 14.0294 14.2628 13.9967 14.2779C13.964 14.293 13.9315 14.3079 13.8998 14.3243C13.8363 14.3564 13.7736 14.3881 13.7119 14.4192C13.6502 14.4502 13.5914 14.4843 13.533 14.5157C13.4748 14.5478 13.4176 14.5783 13.3637 14.6112C13.3094 14.6434 13.2567 14.6747 13.2056 14.705C13.1544 14.7348 13.107 14.7671 13.0604 14.7962C13.0142 14.8258 12.9699 14.8543 12.9278 14.8813C12.8866 14.9095 12.8475 14.9364 12.8108 14.9616C12.7741 14.9868 12.7398 15.0104 12.7081 15.0323C12.6764 15.0541 12.6484 15.0758 12.6226 15.0945C12.5876 15.1203 12.5577 15.1424 12.5335 15.1602C12.4931 15.1901 12.4837 15.2463 12.5119 15.2879L13.2795 16.4165C13.3069 16.4566 13.3603 16.4692 13.4026 16.4454C13.4221 16.4344 13.4451 16.4213 13.4714 16.4065C13.4943 16.3939 13.5191 16.3789 13.5471 16.3643C13.575 16.3497 13.6053 16.334 13.6376 16.3172C13.6698 16.3003 13.7041 16.2824 13.7402 16.2635C13.777 16.2459 13.8156 16.2274 13.8559 16.208C13.8965 16.1892 13.9376 16.1675 13.9819 16.1487C14.0258 16.1294 14.0713 16.1094 14.1181 16.0889C14.1644 16.0676 14.2134 16.049 14.263 16.0291C14.3129 16.0098 14.3628 15.9879 14.4151 15.9694C14.4672 15.9506 14.5202 15.9316 14.5738 15.9122C14.6004 15.9021 14.6277 15.8936 14.6552 15.8848C14.6825 15.876 14.71 15.8672 14.7376 15.8583C14.7652 15.8494 14.7929 15.8404 14.8206 15.8315C14.8485 15.823 14.8768 15.8154 14.9049 15.8073C14.9613 15.7917 15.0174 15.7744 15.0742 15.7599C15.1311 15.7458 15.188 15.7317 15.2446 15.7177C15.2727 15.7102 15.3013 15.7044 15.3297 15.6985C15.358 15.6925 15.3863 15.6866 15.4145 15.6807C15.4426 15.6747 15.4705 15.6688 15.4984 15.6628C15.5263 15.6573 15.5544 15.653 15.582 15.648C15.6374 15.6384 15.6921 15.6289 15.7459 15.6196C15.7999 15.6121 15.853 15.6048 15.905 15.5976Z" fill="white" fill-opacity="0.7"/>
<path d="M10.6707 17.0568C10.6505 17.0852 10.6303 17.1138 10.6101 17.1425C10.5898 17.1712 10.5695 17.2 10.5491 17.2289C10.5288 17.2579 10.5098 17.2879 10.4901 17.3174C10.4512 17.3768 10.4114 17.4358 10.3732 17.4959C10.336 17.5565 10.2988 17.6171 10.2617 17.6775L10.234 17.7227L10.2078 17.7687C10.1903 17.7992 10.1729 17.8297 10.1556 17.86C10.0847 17.9804 10.0232 18.1035 9.9606 18.2203C9.93147 18.2799 9.90283 18.3385 9.87478 18.3959C9.86088 18.4245 9.8471 18.4529 9.83352 18.4809C9.82073 18.5093 9.80811 18.5374 9.79564 18.5651C9.77082 18.6204 9.74668 18.6742 9.72332 18.7262C9.70153 18.7789 9.68046 18.8298 9.66024 18.8786C9.64043 18.9276 9.6204 18.974 9.60333 19.019C9.58648 19.064 9.57049 19.1068 9.55545 19.1469C9.54048 19.187 9.52648 19.2246 9.51354 19.2593C9.50158 19.2943 9.49061 19.3265 9.48068 19.3556C9.4678 19.3939 9.45673 19.4267 9.44769 19.4535C9.43168 19.501 9.45603 19.5525 9.50283 19.5705L10.2173 19.8444C10.2628 19.8618 10.314 19.8415 10.335 19.7975C10.3455 19.7758 10.3579 19.7497 10.3722 19.7198C10.3841 19.6952 10.3972 19.6679 10.4115 19.6381C10.4267 19.6088 10.4431 19.5772 10.4607 19.5433C10.4782 19.5096 10.4968 19.4736 10.5164 19.4357C10.5362 19.3979 10.559 19.3592 10.5816 19.3183C10.6045 19.2776 10.6283 19.2351 10.653 19.1912C10.679 19.1481 10.7059 19.1036 10.7336 19.0578C10.7473 19.0349 10.7613 19.0117 10.7754 18.9883C10.7903 18.9652 10.8054 18.942 10.8206 18.9184C10.851 18.8714 10.8821 18.8234 10.9137 18.7746C10.9809 18.6795 11.0466 18.5793 11.1209 18.4827C11.139 18.4583 11.1572 18.4338 11.1755 18.4092L11.2029 18.3723L11.2316 18.3362C11.2698 18.2881 11.3081 18.2398 11.3465 18.1916C11.3855 18.1439 11.426 18.0975 11.4654 18.0506C11.4854 18.0274 11.5046 18.0037 11.525 17.9811C11.5455 17.9585 11.5659 17.936 11.5862 17.9136C11.6065 17.8912 11.6266 17.8689 11.6467 17.8467C11.6666 17.8243 11.6867 17.8024 11.7076 17.7814C11.7486 17.7389 11.7891 17.6969 11.829 17.6556C11.8688 17.6144 11.9104 17.5761 11.9496 17.5374C11.9891 17.499 12.0274 17.4611 12.0667 17.4264C12.1055 17.3911 12.1431 17.3568 12.1796 17.3237C12.2157 17.2903 12.253 17.2605 12.2874 17.2306C12.322 17.2011 12.3552 17.1728 12.3868 17.146C12.4178 17.1214 12.4472 17.0982 12.4748 17.0762C12.5023 17.0544 12.528 17.0339 12.5518 17.015C12.5627 17.0059 12.5775 16.9951 12.59 16.9856C12.6028 16.976 12.615 16.9667 12.6266 16.958C12.6519 16.9389 12.6742 16.9221 12.6933 16.9077C12.7362 16.8753 12.7429 16.8135 12.7079 16.7726L11.8944 15.8195C11.8595 15.7786 11.7974 15.7755 11.7586 15.8128C11.7414 15.8294 11.7213 15.8488 11.6985 15.8707C11.688 15.8808 11.677 15.8914 11.6655 15.9025C11.6537 15.914 11.6425 15.9244 11.6279 15.9393C11.6 15.9674 11.5699 15.9979 11.5376 16.0304C11.5056 16.0629 11.4715 16.0975 11.4355 16.134C11.402 16.1703 11.3669 16.2083 11.3302 16.2481C11.294 16.2881 11.2549 16.3284 11.2171 16.3727C11.1791 16.4167 11.1399 16.4622 11.0996 16.5089C11.0587 16.5551 11.0192 16.6047 10.9786 16.6551C10.9383 16.7057 10.8957 16.7562 10.8552 16.8097C10.8147 16.8632 10.7736 16.9176 10.732 16.9727C10.7109 17 10.6906 17.0282 10.6707 17.0568Z" fill="white" fill-opacity="0.7"/>
<path d="M9.19241 20.3982C9.18765 20.4216 9.18208 20.449 9.17577 20.48C9.17 20.5085 9.16359 20.54 9.15662 20.5743C9.14978 20.6094 9.14309 20.6508 9.13562 20.6931C9.12827 20.7358 9.12047 20.7813 9.11224 20.8292C9.10827 20.8531 9.10372 20.8777 9.09995 20.9026C9.09659 20.9273 9.09318 20.9526 9.08968 20.9784C9.07634 21.0817 9.05877 21.1929 9.04866 21.3116C9.04278 21.3708 9.03676 21.4316 9.0306 21.4937C9.02552 21.5559 9.02213 21.6196 9.01775 21.6842C9.00752 21.8132 9.00565 21.9471 9.00138 22.0825L9 22.1334L9.00025 22.1845C9.00044 22.2186 9.00063 22.2528 9.00081 22.2871C9.00102 22.3213 9.00123 22.3556 9.00142 22.3899L9.00174 22.4414L9.00371 22.4929C9.0065 22.5614 9.00928 22.63 9.01207 22.6983L9.01417 22.7494L9.01482 22.7659L9.01573 22.7782L9.01755 22.8028C9.01997 22.8356 9.02238 22.8684 9.02478 22.901C9.02719 22.9336 9.0296 22.966 9.03196 22.9983C9.03524 23.032 9.03848 23.0656 9.04174 23.0989C9.04502 23.1322 9.04828 23.1653 9.05152 23.1982C9.05315 23.2146 9.05478 23.231 9.05641 23.2473C9.05843 23.2633 9.06046 23.2793 9.06247 23.2952C9.07054 23.3586 9.07848 23.4211 9.08625 23.4822C9.09563 23.543 9.1048 23.6026 9.1137 23.6605C9.12204 23.7185 9.13278 23.7745 9.14265 23.8287C9.14347 23.833 9.14428 23.8373 9.14508 23.8416C9.15332 23.8859 9.19186 23.918 9.2369 23.918H9.48873C9.5425 23.918 9.58517 23.8727 9.58201 23.819C9.58115 23.8047 9.58028 23.7902 9.57931 23.7756C9.57617 23.7234 9.57238 23.6696 9.57117 23.614C9.56935 23.5585 9.56749 23.5015 9.56558 23.4433C9.56522 23.3851 9.56486 23.3256 9.5645 23.2651C9.5644 23.25 9.56431 23.2348 9.56421 23.2196C9.56454 23.2046 9.56488 23.1896 9.56522 23.1744C9.56588 23.1443 9.56654 23.1138 9.56723 23.0832C9.56789 23.0527 9.56857 23.022 9.56925 22.9911C9.57077 22.9587 9.57227 22.9262 9.5738 22.8936C9.57532 22.8609 9.57685 22.8281 9.57837 22.7953L9.57952 22.7706L9.58009 22.7582L9.58017 22.7567C9.58017 22.7527 9.58024 22.7603 9.58028 22.759L9.58051 22.756L9.58098 22.7501L9.58481 22.7022C9.58989 22.6385 9.59498 22.5745 9.6001 22.5106L9.604 22.4627L9.60952 22.4149C9.61319 22.3831 9.61685 22.3514 9.62051 22.3197C9.62414 22.288 9.62778 22.2564 9.6314 22.2249L9.6368 22.1777L9.64379 22.1309C9.66297 22.0064 9.67926 21.884 9.70314 21.7667C9.71433 21.708 9.72436 21.6502 9.73586 21.594C9.74838 21.5379 9.76062 21.4831 9.77254 21.4298C9.79459 21.3229 9.82319 21.2235 9.84645 21.1314C9.85242 21.1084 9.85826 21.0859 9.86396 21.0639C9.86999 21.0423 9.87648 21.0218 9.88247 21.0015C9.89454 20.961 9.906 20.9227 9.91677 20.8867C9.92777 20.8503 9.93681 20.8178 9.94735 20.7852C9.95839 20.7519 9.96851 20.7214 9.97768 20.6939C9.98765 20.6638 9.99646 20.6373 10.004 20.6146C10.021 20.5635 9.99134 20.5088 9.93935 20.495L9.30805 20.3266C9.25604 20.3128 9.20313 20.3454 9.19241 20.3982Z" fill="white" fill-opacity="0.7"/>
<path d="M16.3386 23.6703C16.544 23.7707 16.7616 23.8183 16.9758 23.8183C17.5135 23.8183 18.0302 23.5188 18.2823 23.0032C18.3308 22.9039 18.3684 22.7943 18.3928 22.6912L19.8627 16.3113L20.4225 13.8816L20.7693 12.3765C20.8097 12.2013 20.6703 12.082 20.5305 12.082C20.4487 12.082 20.3667 12.1229 20.3204 12.2174L19.6147 13.6609L18.5737 15.7903L15.6714 21.7267C15.3189 22.4477 15.6177 23.3179 16.3386 23.6703ZM17.0297 21.6158C17.423 21.6158 17.7419 21.9346 17.7419 22.328C17.7419 22.7213 17.423 23.0402 17.0297 23.0402C16.6363 23.0402 16.3175 22.7213 16.3175 22.328C16.3175 21.9346 16.6363 21.6158 17.0297 21.6158Z" fill="white"/>
</svg>
