<svg width="26" height="26" viewBox="0 0 26 26" fill="none" xmlns="http://www.w3.org/2000/svg">
<path fill-rule="evenodd" clip-rule="evenodd" d="M9.13937 1.85715C9.60366 1.85715 9.98062 2.23665 9.98062 2.70518C9.98062 3.1726 9.60477 3.5521 9.13937 3.5521L7.33861 3.55321C5.84405 3.55544 4.62806 4.78075 4.62806 6.28651V8.39657C4.62806 8.86399 4.25 9.24461 3.78572 9.24461C3.32143 9.24461 2.94447 8.86399 2.94447 8.39657V6.28651C2.94447 3.84702 4.91548 1.86049 7.3375 1.85826L9.13827 1.85715H9.13937ZM17.0686 1.85743H18.8295C21.2582 1.85743 23.2325 3.84508 23.2325 6.29013V8.39686C23.2325 8.86428 22.8567 9.24489 22.3913 9.24489C21.927 9.24489 21.55 8.86428 21.55 8.39686V6.29013C21.55 4.77992 20.3296 3.55127 18.8295 3.55127H17.0686C16.6043 3.55127 16.2273 3.17289 16.2273 2.70547C16.2273 2.23693 16.6043 1.85743 17.0686 1.85743ZM16.1422 6.10481H10.0357C8.63842 6.11928 7.51529 7.26891 7.52745 8.67673V10.0901C7.53077 10.2548 7.66232 10.3895 7.82592 10.3951H18.3497C18.5144 10.3906 18.646 10.2559 18.6515 10.0901V8.67673C18.6526 7.99675 18.3917 7.34347 17.9208 6.85713C17.4532 6.37524 16.811 6.10481 16.1422 6.10481ZM1.771 12.1182H24.4071C24.8714 12.1182 25.2484 12.4977 25.2484 12.9663C25.2484 13.4337 24.8714 13.8121 24.4071 13.8121H23.2332V17.8519C23.2332 20.2981 21.2577 22.2857 18.8302 22.2857H17.0692C16.6038 22.2857 16.2269 21.9062 16.2269 21.4377C16.2269 20.9703 16.6038 20.5908 17.0692 20.5908H18.8302C20.3303 20.5908 21.5507 19.3632 21.5507 17.8519V13.8121H18.6511V14.9372C18.6622 16.345 17.5401 17.4958 16.1418 17.5091H10.0353C8.63801 17.4958 7.51598 16.345 7.52704 14.9372V13.8121H4.62746V17.8564C4.62746 19.3621 5.84455 20.5874 7.34022 20.5897L9.13988 20.5908C9.60416 20.5908 9.98112 20.9703 9.98112 21.4377C9.98001 21.9062 9.60416 22.2857 9.13877 22.2857L7.33801 22.2846C4.91598 22.2824 2.94387 20.2958 2.94387 17.8564V13.8121H1.771C1.30671 13.8121 0.92865 13.4337 0.92865 12.9663C0.92865 12.4977 1.30671 12.1182 1.771 12.1182Z" fill="white"/>
</svg>
